<svg width="141" height="37" xmlns="http://www.w3.org/2000/svg">
 <style type="text/css">.st0{fill:#77787B;}</style>

 <desc>Created with Sketch.</desc>
 <g>
  <title>background</title>
  <rect fill="none" id="canvas_background" height="39" width="143" y="-1" x="-1"/>
 </g>
 <g>
  <title>Layer 1</title>
  <g id="svg_1">
   <g id="svg_2">
    <g id="svg_3">
     <path id="svg_4" d="m18.171186,2.032203c-9.4,0 -17.1,7.6 -17.1,17.1c0,9.4 7.6,17.1 17.1,17.1c9.4,0 17.1,-7.6 17.1,-17.1c0,-9.5 -7.7,-17.1 -17.1,-17.1zm0,32.8c-8.7,0 -15.7,-7 -15.7,-15.7c0,-8.7 7,-15.7 15.7,-15.7c8.7,0 15.7,7 15.7,15.7c0.1,8.6 -7,15.7 -15.7,15.7z" class="st0"/>
    </g>
    <path id="svg_5" d="m18.171186,31.832203c0.6,0 0.9,-0.4 1,-0.9c0.1,0.2 0.3,0.4 0.5,0.5c0.2,0 0.5,0 0.7,-0.1c0.2,-0.1 0.4,-0.3 0.5,-0.5c0.1,-0.2 0.1,-0.5 0,-0.7c0.3,0.4 0.7,0.5 1.2,0.3c0.6,-0.3 0.8,-0.7 0.5,-1.3c-0.7,-1.7 -1.4,-3.3 -2.1,-5c-0.1,-0.2 -0.1,-0.3 -0.2,-0.5c-0.1,-0.1 -0.1,-0.2 -0.2,-0.3c0,-0.1 -0.1,-0.1 -0.2,-0.2c1.1,0.1 1.6,0.5 1.9,0.7c0.1,0.1 0.1,0.1 0.4,0c0.1,0 0.3,0 0.4,0c0.1,0.1 0.3,0.2 0.4,0.2c0.4,0.3 0.8,0.6 1.2,0.9c0.2,0.2 0.4,0.4 0.4,0.7c0,0.2 -0.6,0.7 -0.7,0.9c-0.4,0.4 0.2,1 1,1c-0.2,-0.2 -0.3,-0.4 -0.2,-0.6c0.1,0 0.2,0 0.4,-0.1c0.2,-0.1 0.1,-0.6 0.2,-0.7c0.3,-0.3 1.1,-0.3 1.7,-0.3c0.2,0 0.5,-0.1 0.4,-0.4c0.3,0 0.4,0.3 0.4,0.5c0.3,-0.2 0.5,-0.9 -0.5,-1.1l0,0c0.2,-0.2 0.5,-0.2 0.7,0c0.2,-0.3 -0.3,-0.8 -1.1,-0.5c0,0 -0.4,-0.5 -1.4,0.7c-0.1,-0.1 -0.3,-0.2 -0.4,-0.3c-0.4,-0.4 -1.4,-1.4 -1.4,-1.4c0,-0.6 -0.1,-1.7 -0.8,-2.3c-0.3,-0.3 -0.6,-0.4 -1.3,-0.6c0,0 0.3,-0.5 0.4,-0.7c0.6,0.6 1.8,0.8 1.8,-0.2c1,1 1.9,0.4 1.9,-0.2c0,0.3 0.1,0.6 0.2,0.9c0.1,0.3 0.6,1.6 1.7,1.6c0,0.4 0,1.9 1.4,2.2c0.1,0 0.1,0 0.2,0.1c0.6,0.7 2.9,1.4 3.1,1.2c-0.2,-0.1 -0.5,-0.3 -0.5,-1.1c0,-0.5 -0.1,-3.3 -0.1,-7.2c0,-1.4 -0.1,-5.9 -4.6,-6.5c-0.7,-0.1 -1.3,0 -1.9,0.4c-0.8,0.6 -1.2,1.6 -0.7,2.7c0,0 0,0.1 0,0.1c0.2,0.3 0.1,0.5 -0.1,0.7c-0.4,0.4 -0.8,0.6 -1.3,0.7c-0.3,0 -0.6,-0.1 -0.8,-0.3c-0.5,-0.5 -0.8,-1.1 -1,-1.8c-0.2,-1.3 0.1,-2 0.1,-2.1c0.4,-0.7 1.1,-1.3 2,-1.3c0.4,-0.8 1.6,-0.5 1.6,-0.5c0.3,0.1 0.4,0.1 0.5,0.3c0,0 0.5,-0.8 0,-1.1s-1.6,-0.4 -1.6,-0.4c0,-0.5 -0.8,-0.9 -2.4,-0.6c-1.8,0.3 -2.2,-0.4 -2.2,-0.4c-0.1,0.9 0.6,1.3 0.8,1.5c-0.7,0.8 -1.7,2.3 -1.9,4.4c-0.2,-2.1 -1.2,-3.6 -1.9,-4.4c0.2,-0.1 0.9,-0.6 0.8,-1.5c0,0 -0.4,0.7 -2.2,0.4c-1.5,-0.3 -2.4,0.1 -2.4,0.6c0,0 -1.1,0.1 -1.6,0.4s0,1.1 0,1.1c0.1,-0.1 0.2,-0.2 0.5,-0.3c0,0 1.2,-0.3 1.6,0.5c0.9,0.1 1.6,0.6 2,1.3c0,0 0.4,0.7 0.1,2.1c-0.1,0.7 -0.5,1.3 -1,1.8c-0.2,0.2 -0.5,0.4 -0.8,0.3c-0.5,-0.1 -0.9,-0.3 -1.3,-0.7c-0.2,-0.2 -0.3,-0.4 -0.1,-0.7c0,0 0,-0.1 0,-0.1c0.5,-1.1 0.1,-2.1 -0.7,-2.7c-0.6,-0.4 -1.2,-0.5 -1.9,-0.4c-4.4,0.6 -4.6,5.1 -4.6,6.5c0,3.9 -0.1,6.7 -0.1,7.2c0,0.8 -0.3,1 -0.5,1.1c0.3,0.2 2.6,-0.5 3.1,-1.2c0,0 0.1,-0.1 0.2,-0.1c1.4,-0.3 1.4,-1.8 1.4,-2.2c1.1,0 1.6,-1.3 1.7,-1.6c0.1,-0.3 0.2,-0.6 0.2,-0.9c0,0.6 0.9,1.1 1.9,0.2c0,1 1.2,0.8 1.8,0.2c0.1,0.2 0.4,0.7 0.4,0.7c-0.7,0.1 -1,0.3 -1.3,0.6c-0.8,0.7 -0.8,1.8 -0.8,2.3c0,0 -1,1 -1.4,1.4c-0.1,0.1 -0.3,0.2 -0.4,0.3c-1.1,-1.2 -1.4,-0.7 -1.4,-0.7c-0.8,-0.3 -1.2,0.2 -1.1,0.5c0.2,-0.2 0.5,-0.1 0.7,0l0,0c-1.1,0.2 -0.8,1 -0.5,1.1c0,-0.2 0.1,-0.5 0.4,-0.5c0,0.3 0.2,0.4 0.4,0.4c0.5,0 1.4,0 1.7,0.3c0.2,0.1 0.1,0.6 0.2,0.7c0.1,0.1 0.3,0.1 0.4,0.1c0,0.2 0,0.3 -0.2,0.6c0.8,0.1 1.3,-0.6 1,-1c-0.2,-0.2 -0.7,-0.7 -0.7,-0.9c0,-0.2 0.2,-0.5 0.4,-0.7c0.4,-0.3 0.8,-0.6 1.2,-0.9c0.1,-0.1 0.2,-0.2 0.4,-0.2c0.1,-0.1 0.3,-0.1 0.4,0c0.3,0.1 0.3,0.1 0.4,0c0.3,-0.2 0.8,-0.6 1.9,-0.7c-0.1,0 -0.1,0.1 -0.2,0.2c-0.1,0.1 -0.1,0.2 -0.2,0.3c-0.1,0.1 -0.1,0.3 -0.2,0.5c-0.7,1.7 -1.4,3.3 -2.1,5c-0.2,0.6 0,1 0.5,1.3c0.4,0.2 0.9,0.1 1.2,-0.3c-0.1,0.3 -0.1,0.5 0,0.7c0.1,0.2 0.3,0.4 0.5,0.5c0.2,0.1 0.5,0.1 0.7,0.1c0.3,-0.1 0.4,-0.2 0.5,-0.5c0.1,0.5 0.4,0.9 1,0.9z" class="st0"/>
   </g>
   <g id="svg_6">
    <path id="svg_7" d="m46.971186,13.132203c0.9,0 2.9,-0.1 4,-0.2c0,0.2 0,0.5 0,0.6c0,0.1 0,0.4 0,0.6c-1,-0.1 -2.6,-0.2 -3.1,-0.2c-0.4,0 -1.7,0 -2.5,0.1l0,4.2l0.9,0c1.8,0 5.4,0.3 5.4,3.4c0,2.5 -2.1,3.6 -4.8,3.6c-0.3,0 -1.4,0 -2.2,0c-0.3,0 -0.7,0 -1,0c0.1,-1.9 0.1,-4.4 0.1,-6.5c0,-1.9 0,-4.8 -0.1,-5.7c1.1,0 2.9,0.1 3.3,0.1zm-1.6,11.1c0.4,0 1,0 1.4,0c2,0 3.1,-0.9 3.1,-2.7c0,-1.9 -1.4,-2.5 -4.6,-2.5l0,5.2l0.1,0z" class="st0"/>
    <path id="svg_8" d="m53.571186,17.632203c0.7,-0.8 1.9,-1.2 2.9,-1.2c1.8,0 3,0.9 3,3l0,4.2c0,0.9 0.2,1.1 0.5,1.1c0.1,0 0.3,0 0.4,-0.1l0.1,0.4c-0.5,0.3 -1,0.3 -1.3,0.3c-0.6,0 -0.9,-0.3 -1,-0.7l-0.1,-0.4c-0.9,0.7 -1.9,1.1 -2.7,1.1c-1.5,0 -2.5,-0.8 -2.5,-2.2c0,-1.5 1.1,-2.2 2.7,-2.5l1.7,-0.3c0.6,-0.1 0.9,-0.3 0.9,-0.7c0,-1.8 -0.8,-2.3 -2.1,-2.3c-1,0 -1.7,0.3 -2.3,1.4l-0.2,0l0,-1.1zm4.6,3.2l-1.1,0.2c-1.2,0.2 -2.6,0.6 -2.6,1.9c0,1 0.5,1.5 1.6,1.5c0.7,0 1.3,-0.2 2,-1l0,-2.6l0.1,0z" class="st0"/>
    <path id="svg_9" d="m62.871186,16.732203c0.2,0 0.5,0 0.8,0c-0.1,1.3 -0.2,3.4 -0.2,3.5c0.7,0 1.7,0.1 2.3,0.1c0.6,0 1.6,0 2.1,-0.1c0,-0.1 0,-2.2 -0.1,-3.5c0.3,0 0.7,0 0.9,0c0.2,0 0.5,0 0.8,0c-0.1,1.3 -0.2,3.4 -0.2,4.3c0,0.7 0,3 0.2,4.3c-0.3,0 -0.5,0 -0.8,0c-0.3,0 -0.6,0 -0.9,0c0.1,-1.3 0.1,-3.6 0.1,-4.1c-0.7,-0.1 -1.8,-0.1 -2.1,-0.1c-0.5,0 -1.6,0 -2.3,0.1c0,0.6 0,2.8 0.2,4.1c-0.3,0 -0.5,0 -0.8,0c-0.3,0 -0.6,0 -0.9,0c0.1,-1.3 0.2,-3.6 0.2,-4.3c0,-0.9 0,-3 -0.2,-4.3c0.3,0 0.7,0 0.9,0z" class="st0"/>
    <path id="svg_10" d="m72.571186,16.732203c0.2,0 0.5,0 0.8,0c-0.1,1.3 -0.1,3.4 -0.1,3.7l0.3,0c0.6,0 3.4,-3.2 3.7,-3.7c0.2,0 0.6,0 0.8,0c0.2,0 0.6,0 0.8,0l-4,3.6c0.5,0.6 3.2,3.6 4.4,4.9c-0.5,0 -0.8,0 -1,0c-0.3,0 -0.8,0 -1.1,0c-0.6,-1 -2.5,-3.2 -3.6,-4.4l-0.3,0c0,0.6 0,3.1 0.1,4.4c-0.2,0 -0.5,0 -0.8,0c-0.3,0 -0.6,0 -0.9,0c0.1,-1.3 0.2,-3.6 0.2,-4.3c0,-0.9 0,-3 -0.2,-4.3c0.3,0.1 0.6,0.1 0.9,0.1z" class="st0"/>
    <path id="svg_11" d="m86.571186,13.032203c0.6,0 1.3,-0.1 1.8,-0.1c3.1,0 4.3,0.9 4.3,3.1c0,2.7 -2.3,3.6 -5.1,3.6c-0.2,0 -0.8,0 -1.1,-0.1l0,2.9c0,0.8 0,1.9 0.1,2.7c-0.3,0 -0.6,0 -0.9,0c-0.3,0 -0.7,0 -0.9,0c0.1,-1.9 0.1,-4.4 0.1,-6.5c0,-1.9 0,-4.8 -0.1,-5.7c0.7,0 1.4,0.1 1.8,0.1zm0.7,5.7c2.4,0 3.7,-0.9 3.7,-2.7c0,-1.7 -1.3,-2.1 -3,-2.1c-0.3,0 -1.3,0 -1.5,0l0,4.7c0.3,0.1 0.6,0.1 0.8,0.1z" class="st0"/>
    <path id="svg_12" d="m101.471186,20.932203c0,2.6 -1.7,4.5 -4.3,4.5c-2.6,0 -4.2,-1.9 -4.2,-4.3c0,-2.8 1.8,-4.6 4.4,-4.6c2.5,0 4.1,1.8 4.1,4.4zm-6.9,0.1c0,1.9 0.8,3.7 2.6,3.7c1.7,0 2.7,-1.7 2.7,-3.9c0,-1.8 -0.7,-3.7 -2.6,-3.7c-1.8,0 -2.7,1.9 -2.7,3.9z" class="st0"/>
    <path id="svg_13" d="m109.671186,18.532203l-0.2,0c-0.6,-1 -1.4,-1.3 -2.3,-1.3c-2,0 -2.9,1.9 -2.9,3.8c0,2.1 1.2,3.8 3.3,3.8c0.7,0 1.3,-0.1 2.3,-1.2l0.2,0.2l-0.2,0.8c-0.8,0.5 -1.7,0.8 -2.8,0.8c-2.6,0 -4.3,-1.8 -4.3,-4.4c0,-2.7 1.9,-4.4 4.6,-4.4c0.9,0 1.8,0.2 2.9,0.7l-0.6,1.2z" class="st0"/>
    <path id="svg_14" d="m118.271186,18.532203l-0.2,0c-0.6,-1 -1.4,-1.3 -2.3,-1.3c-2,0 -2.9,1.9 -2.9,3.8c0,2.1 1.2,3.8 3.3,3.8c0.7,0 1.3,-0.1 2.3,-1.2l0.1,0.2l-0.2,0.8c-0.8,0.5 -1.7,0.8 -2.8,0.8c-2.6,0 -4.3,-1.8 -4.3,-4.4c0,-2.7 1.9,-4.4 4.6,-4.4c0.9,0 1.8,0.2 2.9,0.7l-0.5,1.2z" class="st0"/>
    <path id="svg_15" d="m120.771186,25.132203c-0.1,0 -0.4,0 -0.5,0c0.1,-1.3 0.2,-3.6 0.2,-4.3c0,-0.9 0,-3 -0.2,-4.3c0.3,0 0.7,0 0.9,0c0.2,0 0.5,0 0.8,0c-0.1,1.3 -0.2,3.4 -0.2,4.3c0,0.7 0,1.7 0,2.2c0.9,-1.1 4.2,-5.3 5,-6.4c0.2,0 0.3,0 0.5,0c0.1,0 0.5,0 0.6,0c-0.1,1.3 -0.2,3.4 -0.2,4.3c0,0.7 0,3 0.2,4.3c-0.3,0 -0.5,0 -0.8,0c-0.3,0 -0.6,0 -0.9,0c0.1,-1.3 0.2,-3.6 0.2,-4.3c0,-0.9 0,-2 0,-2.3c-1.1,1.2 -4.2,5.1 -5.1,6.6c-0.2,-0.1 -0.4,-0.1 -0.5,-0.1z" class="st0"/>
    <path id="svg_16" d="m130.271186,25.132203c-0.1,0 -0.4,0 -0.5,0c0.1,-1.3 0.1,-3.6 0.1,-4.3c0,-0.9 0,-3 -0.1,-4.3c0.3,0 0.7,0 0.9,0c0.2,0 0.5,0 0.8,0c-0.2,1.4 -0.2,3.5 -0.2,4.4c0,0.7 0,1.7 0,2.2c0.9,-1.1 4.2,-5.3 5,-6.4c0.2,0 0.3,0 0.5,0c0.1,0 0.5,0 0.6,0c-0.1,1.2 -0.1,3.3 -0.1,4.2c0,0.7 0,3 0.1,4.3c-0.3,0 -0.5,0 -0.8,0c-0.3,0 -0.6,0 -0.9,0c0.1,-1.3 0.1,-3.6 0.1,-4.3c0,-0.9 0,-2 0,-2.3c-1.1,1.2 -4.2,5.1 -5.1,6.6c-0.1,-0.1 -0.2,-0.1 -0.4,-0.1z" class="st0"/>
   </g>
  </g>
 </g>
</svg>