<?xml version="1.0" encoding="utf-8"?>
<!-- Generator: Adobe Illustrator 16.0.0, SVG Export Plug-In . SVG Version: 6.00 Build 0)  -->
<!DOCTYPE svg PUBLIC "-//W3C//DTD SVG 1.1//EN" "http://www.w3.org/Graphics/SVG/1.1/DTD/svg11.dtd">
<svg version="1.1" id="Layer_1" xmlns="http://www.w3.org/2000/svg" xmlns:xlink="http://www.w3.org/1999/xlink" x="0px" y="0px"
	 width="24px" height="24px" viewBox="0 0 24 24" enable-background="new 0 0 24 24" xml:space="preserve">
<g>
	<path d="M11.371,13.857c-0.052,0.061-0.372,0.175-0.756,0.164c-0.266-0.006-0.485-0.071-0.56-0.165
		c-0.085-0.108-0.242-0.127-0.351-0.042c-0.108,0.085-0.128,0.242-0.042,0.351c0.243,0.309,0.723,0.356,0.993,0.356
		c0.003,0,0.006,0,0.009,0c0.381-0.001,0.898-0.096,1.101-0.357c0.083-0.107,0.063-0.256-0.043-0.342
		C11.619,13.738,11.461,13.753,11.371,13.857z"/>
	<path d="M18.713,4.7c0.014-0.21,0.149-2.746-1.109-3.69c-0.486-0.365-1.112-0.426-1.845-0.217l-0.088-0.441
		c-0.003-0.013-0.016-0.018-0.02-0.03s0.003-0.024-0.003-0.036c-0.01-0.02-0.032-0.023-0.046-0.039
		c-0.022-0.027-0.042-0.048-0.074-0.063c-0.029-0.014-0.056-0.016-0.089-0.018C15.418,0.166,15.4,0.15,15.377,0.155
		c-0.013,0.002-0.018,0.015-0.029,0.02c-0.012,0.004-0.024-0.003-0.036,0.003c-0.634,0.326-1.101,0.927-1.342,1.291l-0.101-0.113
		c-0.021-0.022-0.051-0.023-0.076-0.037c-0.024-0.014-0.042-0.04-0.072-0.044c-0.005,0-0.008,0.003-0.013,0.003
		c-0.033-0.004-0.063,0.013-0.095,0.023c-0.03,0.009-0.063,0.01-0.087,0.03c-0.003,0.002-0.008,0.001-0.011,0.003
		c-0.021,0.019-0.021,0.047-0.034,0.071c-0.016,0.026-0.042,0.045-0.047,0.078l-0.286,1.815c-0.019-0.012-0.035-0.025-0.038-0.027
		c-0.015-0.014-0.034-0.01-0.051-0.02c-0.016-0.009-0.021-0.028-0.038-0.034c-0.015-0.005-0.029,0.004-0.044,0.002
		c-0.034-0.006-0.062-0.003-0.096,0.004c-0.03,0.007-0.053,0.016-0.078,0.034c-0.014,0.009-0.032,0.006-0.044,0.019
		c-0.014,0.014-0.011,0.035-0.021,0.051c-0.01,0.016-0.029,0.021-0.036,0.04l-0.275,0.769c-0.488-0.073-1.047-0.124-1.706-0.128
		c-0.003,0-0.005-0.004-0.009-0.004c-0.015,0-0.026,0.001-0.042,0.001c-0.015,0-0.026-0.001-0.041-0.001
		c-0.004,0-0.006,0.003-0.009,0.004C7.464,4.026,6.378,5.042,6.349,5.071C5.454,5.804,5.084,6.537,5.067,6.57
		c0,0-0.001,0-0.001,0.001C4.59,7.54,4.458,8.945,4.452,9.004c0,0.001,0.001,0.002,0.001,0.003c0,0.001-0.001,0.001-0.001,0.002
		c-0.236,3.546,1.19,7.023,1.252,7.17c0.006,0.015,0.021,0.022,0.029,0.035c0.011,0.017,0.021,0.028,0.034,0.042
		c0.034,0.033,0.072,0.053,0.117,0.063c0.011,0.002,0.016,0.013,0.026,0.014c0.008,0,0.016,0.001,0.023,0.001
		c0.032,0,0.064-0.006,0.096-0.019c0.014-0.006,0.017-0.021,0.028-0.029c0.031-0.019,0.051-0.041,0.07-0.07
		c0.017-0.024,0.029-0.044,0.037-0.072c0.003-0.013,0.017-0.021,0.018-0.036l0.121-1.265c0.243,0.157,0.537,0.292,0.859,0.41
		c-0.511,1.521-0.55,2.662-0.093,3.381c0.244,0.384,0.556,0.54,0.767,0.611v0.308L7.353,20.54c-0.006,0.012,0.001,0.025-0.002,0.037
		c-0.011,0.031-0.009,0.059-0.006,0.091c0.002,0.034,0.005,0.061,0.021,0.09c0.006,0.012,0,0.025,0.008,0.036
		c0.026,0.038,0.505,0.671,1.637,1.037l0.563,1.842c0.017,0.053,0.049,0.097,0.092,0.128c0.042,0.031,0.094,0.049,0.147,0.049h0.436
		c0.126,0,0.231-0.093,0.248-0.217l0.203-1.547c0.005,0,0.008,0.001,0.013,0.001c0.004,0,0.007-0.004,0.011-0.004
		c0.001,0,0.002,0,0.003,0l0.206,1.551c0.017,0.125,0.123,0.217,0.248,0.217h0.434c0.109,0,0.207-0.072,0.239-0.177l0.573-1.869
		c1.075-0.368,1.537-0.974,1.563-1.01c0.008-0.011,0.003-0.025,0.009-0.038c0.014-0.028,0.016-0.053,0.019-0.084
		c0.004-0.035,0.006-0.063-0.006-0.097c-0.004-0.012,0.004-0.024-0.002-0.036l-0.435-0.891c0.002-0.014,0.016-0.023,0.016-0.038
		v-0.367c0.21-0.071,0.522-0.226,0.767-0.61c0.454-0.717,0.418-1.855-0.089-3.369c0.284-0.104,0.549-0.22,0.773-0.354l0.115,1.197
		c0.001,0.014,0.015,0.022,0.018,0.036c0.008,0.028,0.021,0.048,0.037,0.072c0.02,0.03,0.039,0.052,0.069,0.07
		c0.013,0.008,0.016,0.023,0.029,0.029c0.031,0.013,0.063,0.019,0.096,0.019c0.008,0,0.016,0,0.024-0.001
		c0.011-0.001,0.017-0.012,0.027-0.015c0.044-0.01,0.082-0.029,0.115-0.062c0.014-0.014,0.023-0.025,0.034-0.042
		c0.009-0.013,0.023-0.02,0.029-0.035c0.037-0.089,0.58-1.417,0.945-3.242l0.333-0.532c0.139,0.566,0.458,1.423,1.222,2.403
		c0.002,0.002,0.006,0.001,0.008,0.003c0.002,0.003,0,0.007,0.003,0.01c0.05,0.055,0.118,0.083,0.187,0.083
		c0.054,0,0.107-0.017,0.153-0.053c0.002-0.002,0.002-0.005,0.004-0.007c0.003-0.002,0.006-0.001,0.009-0.003
		c0.032-0.029,0.795-0.717,1.017-1.927c0.001-0.003-0.002-0.005-0.002-0.008c0.001-0.003,0.004-0.004,0.004-0.007
		c0.158-1.333-0.042-2.302-0.274-3.423C18.996,8.288,18.717,6.939,18.713,4.7z M13.071,3.816c0.016,0.007,0.04,0.012,0.057,0.019
		c0.037,0.062,0.092,0.111,0.169,0.123c0.014,0.002,0.026,0.003,0.039,0.003c0.041,0,0.074-0.022,0.108-0.04
		c0.117,0.021,0.241,0.04,0.393,0.04c0.013,0,0.02-0.011,0.031-0.013c0.013-0.001,0.022,0.008,0.035,0.004
		c0.237-0.065,0.433-0.057,0.575,0.027c0.19,0.111,0.247,0.33,0.248,0.33c0.004,0.017,0.019,0.025,0.025,0.04
		c0.005,0.012-0.001,0.025,0.006,0.036c0.01,0.017,0.245,0.366,0.722,0.757l-0.215,0.168c-0.081-0.074-0.163-0.148-0.255-0.223
		c-0.032-0.031-0.611-0.557-2.084-0.864L13.071,3.816z M15.62,5.666l0.378-0.296c-0.044,0.161-0.106,0.343-0.178,0.529
		C15.761,5.825,15.693,5.747,15.62,5.666z M16.047,4.97c-0.01-0.009-0.01-0.024-0.021-0.032c-0.042-0.029-0.07-0.057-0.109-0.086
		C16,4.819,16.055,4.804,16.059,4.798c0.019,0.034,0.019,0.104,0.012,0.185C16.064,4.976,16.054,4.976,16.047,4.97z M4.95,9.05
		L4.95,9.05c0.001-0.014,0.13-1.374,0.565-2.258c0,0,0,0,0-0.001C5.524,6.774,5.863,6.114,6.68,5.445
		c0.011-0.009,1.027-0.932,3.99-0.941c2.967,0.009,3.981,0.932,4.007,0.955c0.775,0.633,1.112,1.266,1.142,1.323
		c0.002,0.004-0.001,0.007,0.001,0.011c0.436,0.884,0.565,2.244,0.566,2.258v0c0.151,2.285-0.432,4.588-0.841,5.882l-0.511-5.297
		c-0.003-0.026-0.023-0.041-0.032-0.063c-0.012-0.028-0.019-0.052-0.038-0.075c-0.023-0.025-0.052-0.037-0.085-0.051
		c-0.021-0.009-0.032-0.03-0.056-0.034c-0.011-0.001-0.02,0.008-0.03,0.008c-0.013,0-0.02-0.011-0.032-0.01
		c-0.026,0.002-0.041,0.024-0.063,0.034c-0.027,0.011-0.051,0.019-0.073,0.039c-0.026,0.023-0.038,0.051-0.052,0.083
		c-0.01,0.02-0.03,0.032-0.034,0.054l-0.241,1.564L13.58,7.879c-0.005-0.022-0.025-0.032-0.035-0.051
		c-0.017-0.032-0.029-0.058-0.057-0.08c-0.024-0.021-0.05-0.027-0.08-0.037c-0.021-0.008-0.036-0.028-0.061-0.029
		c-0.013-0.002-0.021,0.011-0.033,0.011s-0.021-0.008-0.031-0.006c-0.019,0.004-0.027,0.022-0.043,0.03
		c-0.036,0.016-0.064,0.029-0.09,0.061c-0.02,0.024-0.025,0.048-0.035,0.078c-0.008,0.022-0.028,0.039-0.029,0.063l-0.094,1.931
		l-0.738-1.295c0.093-0.331,0.15-0.649,0.15-0.936c0-0.138-0.112-0.25-0.25-0.25s-0.25,0.112-0.25,0.25
		c0,1.008-0.829,2.542-1.355,3.414C10.472,9.907,10.21,7.925,9.313,7.19C9.207,7.103,9.05,7.118,8.962,7.225S8.89,7.49,8.997,7.577
		c0.142,0.116,0.26,0.292,0.368,0.488L8.345,9.853L8.25,7.919C8.248,7.889,8.228,7.867,8.218,7.839
		C8.21,7.821,8.209,7.803,8.197,7.787C8.173,7.749,8.136,7.731,8.091,7.714C8.076,7.708,8.069,7.691,8.053,7.688
		c-0.011-0.002-0.02,0.006-0.03,0.005c-0.014,0-0.02-0.013-0.035-0.011C7.963,7.683,7.948,7.703,7.927,7.71
		c-0.03,0.01-0.056,0.018-0.081,0.038C7.82,7.771,7.808,7.796,7.792,7.827c-0.011,0.02-0.031,0.029-0.036,0.052l-0.714,3.308
		L6.798,9.621C6.794,9.597,6.773,9.585,6.764,9.565C6.75,9.534,6.738,9.507,6.714,9.484C6.69,9.463,6.666,9.455,6.637,9.443
		C6.614,9.434,6.6,9.413,6.574,9.41c-0.012-0.001-0.02,0.009-0.031,0.01c-0.011,0-0.02-0.009-0.03-0.008
		C6.489,9.416,6.477,9.437,6.456,9.447C6.425,9.46,6.397,9.471,6.375,9.496C6.354,9.519,6.346,9.545,6.334,9.575
		C6.325,9.597,6.305,9.61,6.302,9.635l-0.508,5.297C5.384,13.639,4.8,11.337,4.95,9.05z M12.984,10.845
		c0.006,0.011,0.018,0.015,0.024,0.024c0.01,0.013,0.019,0.021,0.03,0.031c0.04,0.036,0.086,0.059,0.138,0.064
		c0.005,0,0.008,0.005,0.013,0.006c0.004,0,0.008,0,0.012,0c0.01,0,0.019-0.006,0.028-0.007c-0.089,0.105-0.217,0.176-0.363,0.176
		c-0.268,0-0.485-0.217-0.485-0.482c0-0.183,0.106-0.337,0.258-0.419L12.984,10.845z M9.041,10.223c0.266,0,0.48,0.216,0.48,0.483
		c0,0.266-0.215,0.484-0.48,0.484c-0.268,0-0.483-0.218-0.483-0.484C8.558,10.438,8.773,10.223,9.041,10.223z M7.493,18.366
		c-0.258-0.406-0.433-1.252,0.144-2.96c0.067,0.019,0.132,0.041,0.201,0.058v3.233C7.726,18.631,7.601,18.535,7.493,18.366z
		 M13.089,16.353c-0.147,0.023-0.41,0.038-0.629-0.105c-0.153-0.1-0.247-0.287-0.309-0.519c0.324-0.034,0.635-0.085,0.938-0.144
		V16.353z M11.653,15.769c0.087,0.398,0.251,0.714,0.533,0.897c0.242,0.159,0.511,0.201,0.729,0.201
		c0.063,0,0.121-0.004,0.174-0.009v2.503H8.338v-2.5c0.036,0.002,0.07,0.005,0.11,0.005c0.216,0,0.482-0.042,0.725-0.199
		c0.284-0.186,0.452-0.505,0.539-0.91c0.342,0.026,0.688,0.044,1.035,0.044C11.051,15.802,11.354,15.789,11.653,15.769z
		 M8.902,16.247c-0.188,0.125-0.41,0.127-0.564,0.112v-0.785c0.283,0.056,0.574,0.105,0.877,0.14
		C9.153,15.953,9.059,16.145,8.902,16.247z M9.583,21.973c0.19,0.037,0.396,0.063,0.615,0.081l-0.17,1.296L9.583,21.973z
		 M11.429,23.35l-0.198-1.301c0.225-0.021,0.432-0.052,0.626-0.092L11.429,23.35z M10.682,21.584
		c-1.735-0.009-2.555-0.706-2.807-0.973l0.369-0.75h4.876l0.366,0.75C13.234,20.879,12.414,21.576,10.682,21.584z M13.94,18.355
		c-0.108,0.176-0.237,0.276-0.352,0.343v-3.223c0.069-0.018,0.138-0.037,0.205-0.057C14.36,17.105,14.191,17.949,13.94,18.355z
		 M6.361,14.256l0.248-2.593l0.146,0.931c0.003,0.021,0.021,0.033,0.028,0.051c0.011,0.025,0.02,0.045,0.037,0.065
		c0.024,0.028,0.053,0.045,0.087,0.06c0.017,0.007,0.024,0.025,0.042,0.029s0.035,0.006,0.053,0.006
		c0.013,0,0.025-0.001,0.038-0.003c0.017-0.003,0.025-0.019,0.041-0.025c0.037-0.013,0.069-0.029,0.097-0.059
		c0.018-0.019,0.025-0.037,0.037-0.06c0.009-0.018,0.026-0.03,0.031-0.051l0.597-2.766l0.044,0.89c0,0.005,0.006,0.009,0.007,0.014
		c-0.087,0.192-0.149,0.402-0.149,0.638c0,0.734,0.472,1.325,1.058,1.325c0.581,0,1.058-0.591,1.058-1.325
		c0-0.73-0.477-1.324-1.058-1.324H8.801l0.813-1.422c0.366,1.074,0.469,2.543,0.469,3.203c0,0.009,0.009,0.014,0.01,0.022
		c0.003,0.033,0.02,0.057,0.035,0.086c0.016,0.029,0.025,0.057,0.051,0.078c0.006,0.005,0.006,0.015,0.013,0.02
		c0.044,0.03,0.093,0.044,0.142,0.044c0.058,0,0.111-0.027,0.157-0.065c0.009-0.008,0.018-0.014,0.025-0.023
		c0.007-0.008,0.018-0.012,0.023-0.021c0.054-0.079,0.975-1.435,1.502-2.794l0.483,0.848c-0.533,0.066-0.955,0.614-0.955,1.3
		c0,0.732,0.473,1.326,1.056,1.326c0.587,0,1.058-0.594,1.058-1.326c0-0.295-0.092-0.555-0.223-0.775l0.035-0.72l0.6,2.767
		c0.005,0.021,0.022,0.033,0.031,0.051c0.012,0.023,0.02,0.042,0.038,0.061c0.026,0.029,0.059,0.045,0.096,0.058
		c0.016,0.006,0.024,0.022,0.041,0.025c0.013,0.002,0.025,0.003,0.038,0.003c0.018,0,0.035-0.002,0.053-0.006
		s0.026-0.022,0.042-0.029c0.034-0.015,0.063-0.031,0.087-0.06c0.018-0.021,0.026-0.041,0.037-0.066
		c0.008-0.019,0.025-0.031,0.028-0.051l0.143-0.924l0.258,2.67C13.249,15.641,7.921,15.59,6.361,14.256z M17.293,11.684
		c-0.004-0.033-0.021-0.057-0.036-0.086c-0.017-0.028-0.027-0.054-0.053-0.074c-0.009-0.007-0.009-0.019-0.018-0.024
		c-0.021-0.014-0.047-0.005-0.07-0.012c-0.022-0.006-0.038-0.026-0.063-0.026h-0.001c-0.01,0-0.017,0.01-0.026,0.011
		c-0.032,0.004-0.055,0.02-0.083,0.035c-0.03,0.017-0.057,0.028-0.078,0.055c-0.006,0.008-0.018,0.008-0.023,0.017l-0.052,0.083
		c0.106-0.843,0.154-1.744,0.094-2.65c0-0.001-0.001-0.001-0.001-0.002c0-0.001,0.001-0.002,0.001-0.004
		c-0.006-0.059-0.138-1.452-0.609-2.419c-0.002-0.004,0.001-0.008-0.001-0.013c-0.005-0.009-0.042-0.081-0.108-0.19
		c0.277-0.624,0.617-1.591,0.238-1.948c-0.194-0.182-0.489-0.165-0.876,0.045c-0.009,0.005-0.009,0.016-0.017,0.021
		c-0.189-0.19-0.294-0.329-0.314-0.361c-0.036-0.117-0.149-0.403-0.458-0.587c-0.247-0.147-0.552-0.17-0.898-0.09
		c-0.001,0-0.002-0.001-0.003-0.001c-0.08,0-0.14-0.01-0.205-0.018l0.217-1.377c0.003,0.002,0.006,0.001,0.008,0.003
		c0.013,0.011,0.015,0.029,0.03,0.037c0.038,0.02,0.078,0.03,0.118,0.03c0.054,0,0.104-0.022,0.147-0.055
		c0.005-0.004,0.013-0.002,0.019-0.007c0.008-0.007,0.006-0.018,0.013-0.025c0.014-0.015,0.032-0.025,0.042-0.044
		c0.004-0.008,0.405-0.746,1.025-1.201l0.069,0.35c0.002,0.008,0.01,0.012,0.012,0.019c0.002,0.006-0.003,0.013-0.001,0.019
		c0.006,0.017,0.024,0.022,0.034,0.037c0.021,0.034,0.043,0.063,0.078,0.083c0.021,0.012,0.038,0.016,0.062,0.022
		c0.021,0.006,0.038,0.021,0.061,0.021c0.016,0,0.032-0.001,0.049-0.005c0.007-0.001,0.011-0.009,0.018-0.012
		c0.007-0.002,0.014,0.003,0.021,0.001c0.692-0.256,1.248-0.231,1.65,0.071c1.069,0.801,0.912,3.248,0.911,3.272
		c0,0.003,0.003,0.005,0.003,0.009s-0.004,0.005-0.004,0.009c0.004,2.292,0.301,3.727,0.54,4.88c0.231,1.12,0.414,2.007,0.269,3.253
		c-0.126,0.68-0.453,1.168-0.665,1.427c-1.019-1.427-1.053-2.538-1.053-2.549C17.304,11.7,17.294,11.693,17.293,11.684z"/>
</g>
</svg>
