<?xml version="1.0" encoding="utf-8"?>
<!-- Generator: Adobe Illustrator 16.0.0, SVG Export Plug-In . SVG Version: 6.00 Build 0)  -->
<!DOCTYPE svg PUBLIC "-//W3C//DTD SVG 1.1//EN" "http://www.w3.org/Graphics/SVG/1.1/DTD/svg11.dtd">
<svg version="1.1" id="Layer_1" xmlns="http://www.w3.org/2000/svg" xmlns:xlink="http://www.w3.org/1999/xlink" x="0px" y="0px"
	 width="24px" height="24px" viewBox="0 0 24 24" enable-background="new 0 0 24 24" xml:space="preserve">
<g>
	<path d="M10.579,11.649c0.543,0,0.985-0.489,0.985-1.092c0-0.604-0.442-1.091-0.985-1.091c-0.549,0-0.997,0.486-0.997,1.091
		C9.582,11.161,10.03,11.649,10.579,11.649z M10.768,9.603c0.249,0,0.448,0.222,0.448,0.497c0,0.276-0.199,0.5-0.448,0.5
		c-0.255,0-0.453-0.224-0.453-0.5C10.314,9.825,10.513,9.603,10.768,9.603z"/>
	<path d="M19.738,6.742c-0.002-0.032,0.008-0.063-0.008-0.093l-0.001-0.002l0,0l-1.03-1.97h0.321c0.138,0,0.25-0.112,0.25-0.25
		c0-0.023-0.019-0.038-0.024-0.06c0.021-0.088,0.01-0.181-0.063-0.244l-1.212-1.029l0.386-0.113
		c0.012-0.003,0.016-0.017,0.026-0.021c0.038-0.017,0.065-0.04,0.091-0.073c0.013-0.017,0.026-0.029,0.034-0.049
		c0.004-0.009,0.015-0.014,0.018-0.024c0.008-0.024-0.007-0.046-0.007-0.07c0-0.025,0.015-0.047,0.008-0.073
		c-0.003-0.009-0.014-0.013-0.018-0.021C18.496,2.618,18.474,2.6,18.45,2.577s-0.041-0.046-0.071-0.059
		c-0.009-0.003-0.012-0.014-0.021-0.017l-2.337-0.705l0.426-0.292c0.005-0.003,0.004-0.01,0.009-0.014
		c0.031-0.024,0.046-0.06,0.063-0.096c0.01-0.021,0.027-0.037,0.03-0.061c0.001-0.004,0.006-0.006,0.006-0.011
		c0.003-0.032-0.018-0.056-0.025-0.085c-0.008-0.027-0.001-0.057-0.018-0.082c-0.002-0.003-0.007-0.003-0.01-0.006
		c-0.02-0.026-0.051-0.035-0.079-0.052c-0.028-0.016-0.051-0.04-0.083-0.044c-0.004,0-0.006-0.005-0.01-0.005l-2.358-0.235
		l0.169-0.426C14.152,0.358,14.139,0.33,14.14,0.3c0.001-0.029,0.015-0.057,0.005-0.086c-0.001-0.003-0.006-0.004-0.007-0.007
		c-0.012-0.031-0.04-0.047-0.063-0.071c-0.022-0.023-0.037-0.052-0.066-0.064C14.004,0.069,14.004,0.065,14,0.063
		c-0.03-0.012-0.059,0.001-0.089,0.001c-0.028-0.001-0.056-0.015-0.085-0.005l-2.453,0.85l0.141-0.552
		c0.001-0.004-0.003-0.008-0.002-0.013c0.007-0.032-0.007-0.061-0.014-0.094c-0.006-0.032-0.004-0.063-0.022-0.091
		c-0.002-0.004,0-0.009-0.003-0.012c-0.018-0.024-0.048-0.027-0.071-0.043c-0.024-0.017-0.039-0.043-0.068-0.051
		c-0.005-0.001-0.009,0.003-0.013,0.002c-0.03-0.006-0.058,0.007-0.088,0.012c-0.035,0.006-0.069,0.004-0.098,0.024
		c-0.004,0.002-0.008,0-0.012,0.003L9.524,1.271L8.383,0.369c-0.001-0.001-0.003,0-0.004-0.001S8.378,0.366,8.377,0.365
		c-0.026-0.02-0.059-0.014-0.088-0.022C8.257,0.334,8.229,0.315,8.196,0.319c-0.035,0.004-0.06,0.032-0.09,0.05
		C8.081,0.384,8.051,0.386,8.031,0.411c-0.001,0.001,0,0.002-0.001,0.003S8.028,0.415,8.027,0.416l-0.97,1.302L6.099,1.267
		C6.081,1.259,6.063,1.269,6.044,1.265C6.025,1.26,6.013,1.243,5.992,1.243c-0.016,0-0.026,0.014-0.041,0.017
		C5.919,1.266,5.896,1.277,5.868,1.294C5.84,1.313,5.818,1.329,5.799,1.357c-0.01,0.013-0.026,0.015-0.033,0.03
		C5.757,1.405,5.767,1.424,5.763,1.443c-0.004,0.019-0.021,0.031-0.021,0.05v1.655L5.043,2.915C4.978,2.894,4.909,2.9,4.852,2.929
		l0,0C4.824,2.943,4.815,2.972,4.796,2.993c-0.024,0.026-0.058,0.044-0.069,0.08v0C4.71,3.125,4.72,3.181,4.738,3.235
		C4.741,3.244,4.735,3.255,4.74,3.264c0,0,0,0,0,0.001l1.013,2.006L4.542,5.425C4.427,5.439,4.355,5.536,4.341,5.646
		c-0.017,0.015-0.04,0.017-0.053,0.037c-0.074,0.116-0.04,0.271,0.077,0.345L5.614,6.82L5.181,9.118
		c0,0.001,0.001,0.002,0.001,0.004c-0.005,0.027,0.013,0.053,0.017,0.08c0.007,0.037,0.004,0.075,0.024,0.105
		c0.001,0.001,0,0.002,0.001,0.003c0.005,0.007,0.015,0.004,0.021,0.011C5.28,9.362,5.323,9.399,5.381,9.41
		c0.016,0.003,0.031,0.004,0.046,0.004c0.051,0,0.102-0.015,0.146-0.047l0.601-0.432l0.553,2.412
		c0.004,0.015,0.018,0.022,0.023,0.036c0.009,0.022,0.021,0.038,0.035,0.057c0.024,0.03,0.052,0.051,0.087,0.067
		c0.013,0.006,0.018,0.021,0.032,0.025c0.022,0.006,0.045,0.009,0.066,0.009c0.019,0,0.037-0.002,0.056-0.006
		c0.014-0.003,0.02-0.018,0.033-0.023c0.036-0.015,0.065-0.035,0.092-0.065c0.016-0.018,0.026-0.032,0.036-0.053
		c0.007-0.013,0.021-0.021,0.024-0.035l0.127-0.459c0.297,0.727,0.665,1.376,1.097,1.933c-0.026,0.18-0.041,0.351-0.045,0.515
		c-1.159,2.068-1.509,3.536-1.03,4.358c0.219,0.376,0.553,0.521,0.781,0.578l-0.087,0.766c-0.001,0.005,0.004,0.009,0.004,0.014
		s-0.006,0.008-0.006,0.014c0,0.031,0.022,0.051,0.032,0.079c0.012,0.03,0.014,0.061,0.035,0.084
		c0.014,0.015,0.031,0.02,0.049,0.031l0.509,3.472c0.005,0.037,0.03,0.061,0.05,0.09c0.012,0.018,0.014,0.04,0.029,0.055
		c0.045,0.042,0.104,0.069,0.168,0.069h0.007l0.393,0.844c0.009,0.019,0.026,0.028,0.038,0.043c0.011,0.014,0.019,0.025,0.032,0.037
		c0.045,0.038,0.098,0.064,0.156,0.064h1.063c0.059,0,0.111-0.027,0.156-0.065c0.014-0.011,0.021-0.023,0.032-0.037
		c0.013-0.016,0.03-0.026,0.039-0.045l0.388-0.858c0.041-0.009,0.077-0.022,0.109-0.05c0.015-0.013,0.021-0.028,0.031-0.044
		c0.017-0.021,0.038-0.037,0.047-0.063l1.027-3.172l1.026,3.172c0.009,0.027,0.03,0.042,0.047,0.063
		c0.011,0.016,0.017,0.031,0.031,0.043c0.033,0.029,0.071,0.043,0.114,0.052l0.383,0.855c0.009,0.02,0.027,0.03,0.04,0.046
		c0.011,0.014,0.019,0.025,0.032,0.037c0.045,0.038,0.097,0.065,0.156,0.065h1.066c0.059,0,0.11-0.027,0.156-0.064
		c0.014-0.012,0.021-0.023,0.032-0.037c0.012-0.016,0.029-0.025,0.038-0.043l0.391-0.844h0.005c0.064,0,0.122-0.027,0.167-0.069
		c0.017-0.015,0.02-0.037,0.031-0.055c0.019-0.029,0.043-0.053,0.049-0.089l0.513-3.472c0.018-0.012,0.036-0.016,0.05-0.032
		c0.021-0.024,0.023-0.055,0.035-0.084c0.01-0.027,0.032-0.048,0.032-0.079c0-0.006-0.006-0.009-0.006-0.014
		s0.005-0.009,0.004-0.014l-0.086-0.755c0.227-0.045,0.598-0.179,0.836-0.589c0.486-0.835,0.123-2.333-1.08-4.452
		c-0.004-0.007-0.014-0.007-0.018-0.014c-0.007-0.132-0.015-0.265-0.036-0.407c0.313-0.405,0.594-0.859,0.838-1.356l0.551-0.54
		l0.524,0.706c0.005,0.007,0.016,0.004,0.021,0.011c0.047,0.052,0.106,0.09,0.181,0.09c0.009,0,0.019,0,0.027-0.001
		c0.014-0.001,0.021-0.015,0.034-0.019c0.03-0.008,0.062-0.01,0.088-0.029c0.01-0.007,0.009-0.021,0.018-0.029
		c0.023-0.022,0.033-0.047,0.046-0.077c0.014-0.031,0.026-0.057,0.026-0.091c0-0.012,0.01-0.02,0.009-0.031l-0.26-2.322l0.229,0.116
		c0.036,0.019,0.075,0.027,0.113,0.027c0.008,0,0.016,0,0.024-0.001c0.009-0.001,0.014-0.01,0.022-0.012
		c0.047-0.009,0.086-0.031,0.121-0.064c0.012-0.012,0.021-0.02,0.031-0.034c0.007-0.01,0.018-0.014,0.023-0.025
		c0.012-0.022,0.001-0.046,0.005-0.069c0.006-0.024,0.023-0.043,0.021-0.068l-0.209-2.161l0.499,0.151
		c0.023,0.007,0.048,0.011,0.072,0.011c0.039,0,0.079-0.009,0.116-0.028c0.006-0.003,0.006-0.01,0.011-0.013
		c0.048-0.029,0.087-0.071,0.106-0.128c0.001-0.003,0.004-0.004,0.005-0.007c0,0,0.001,0,0.001-0.001
		C19.758,6.804,19.742,6.774,19.738,6.742z M8.573,10.419c0.001,0.002,0.005,0.001,0.006,0.003c0.039,0.054,0.098,0.093,0.169,0.102
		c0.01,0.001,0.021,0.002,0.03,0.002c0.05,0,0.1-0.015,0.144-0.045c0.004-0.003,0.004-0.009,0.008-0.012
		c0.033-0.025,0.049-0.063,0.065-0.103c0.008-0.019,0.024-0.032,0.028-0.053c0-0.002,0.003-0.004,0.003-0.006l0.178-1.436
		l3.141-1.415l0.838,1.375c0.025,0.041,0.06,0.07,0.099,0.09c0.002,0,0.002,0.002,0.003,0.003c0.036,0.018,0.074,0.026,0.112,0.026
		c0.092,0,0.18-0.05,0.224-0.138l0.408-0.814l0.149,1.294c0.004,0.035,0.029,0.059,0.046,0.087c0.01,0.019,0.007,0.042,0.022,0.058
		c0.003,0.002,0.007,0.001,0.01,0.004c0.014,0.014,0.033,0.016,0.05,0.026c-0.542,0.005-0.979,0.488-0.979,1.089
		c0,0.604,0.441,1.092,0.987,1.092c0.548,0,0.986-0.489,0.986-1.092c0-0.542-0.359-0.969-0.827-1.056
		c0.019-0.004,0.031-0.019,0.048-0.027c0.026-0.012,0.057-0.011,0.078-0.032l1.122-1.088l0.116,1.937
		c0,0.002,0.002,0.003,0.002,0.005c0.002,0.021,0.021,0.037,0.027,0.058c0.015,0.04,0.027,0.081,0.059,0.108
		c0.002,0.002,0.002,0.005,0.004,0.007c0.046,0.038,0.103,0.057,0.158,0.057c0.005,0,0.01,0,0.015,0
		c0.071-0.004,0.132-0.039,0.175-0.089c0.001-0.001,0.003,0,0.004-0.002l0.358-0.438l-0.064,1.77
		c-1.007,1.719-2.511,2.765-4.131,2.765c-1.621,0-3.127-1.048-4.136-2.77L8.051,9.67L8.573,10.419z M10.055,6.998
		c0.003-0.006-0.001-0.012,0.001-0.018c0.012-0.03,0.005-0.061,0.005-0.094c-0.001-0.033,0.005-0.063-0.008-0.093
		c-0.003-0.006,0.001-0.012-0.002-0.018L9.332,5.389l1.444,0.655c0.034,0.015,0.068,0.022,0.104,0.022
		c0.095,0,0.186-0.055,0.228-0.146c0.025-0.056,0.021-0.114,0.006-0.168c0.002-0.004,0.006-0.006,0.007-0.01l0.1-0.344l0.876,1.622
		L9.489,8.194L10.055,6.998z M14.503,9.603c0.25,0,0.453,0.222,0.453,0.497c0,0.276-0.203,0.5-0.453,0.5
		c-0.245,0-0.448-0.224-0.448-0.5C14.055,9.825,14.258,9.603,14.503,9.603z M15.746,22.458h-1.855l-1.014-3.13h3.332L15.746,22.458z
		 M10.995,22.458H9.14l-0.459-3.13h3.329L10.995,22.458z M16.003,13.35c0.016,0.594-0.136,1.048-0.464,1.345
		c-0.818,0.74-2.479,0.419-2.918,0.318C13.872,14.96,15.045,14.359,16.003,13.35z M9.352,14.696
		c-0.312-0.281-0.466-0.701-0.47-1.247c0.01-0.03,0.014-0.061,0.012-0.091c0.957,1.005,2.127,1.603,3.374,1.655
		C11.83,15.114,10.17,15.437,9.352,14.696z M9.009,15.059c0.003,0.002,0.004,0.006,0.007,0.008c0.522,0.472,1.274,0.602,1.947,0.602
		c0.494,0,0.943-0.07,1.23-0.128v3.286H8.581L9.009,15.059z M16.309,18.827h-3.615v-3.286c0.287,0.058,0.737,0.128,1.231,0.128
		c0.674,0,1.427-0.131,1.948-0.603c0.003-0.002,0.004-0.005,0.006-0.008L16.309,18.827z M7.791,17.453
		c-0.197-0.339-0.328-1.207,0.706-3.242c0.022,0.073,0.053,0.139,0.082,0.206l-0.381,3.36C8.068,17.735,7.904,17.648,7.791,17.453z
		 M10.673,22.958l-0.221,0.489H9.709l-0.228-0.489H10.673z M15.181,23.446h-0.745l-0.219-0.489h1.19L15.181,23.446z M17.158,17.446
		c-0.132,0.231-0.33,0.313-0.465,0.346l-0.385-3.373c0.038-0.089,0.082-0.173,0.107-0.271
		C17.479,16.218,17.354,17.102,17.158,17.446z M18.484,8.502c-0.015-0.137-0.146-0.241-0.275-0.221
		c-0.138,0.016-0.236,0.139-0.221,0.276l0.017,0.146c0,0.034-0.003,0.063,0.01,0.093l0.202,1.804l-0.144-0.193
		c-0.004-0.005-0.012-0.004-0.016-0.009s-0.002-0.012-0.007-0.017c-0.021-0.021-0.049-0.019-0.073-0.031
		c-0.029-0.015-0.054-0.034-0.086-0.037c-0.034-0.003-0.061,0.012-0.093,0.023c-0.014,0.004-0.027,0.003-0.04,0.01
		c0.02-0.058,0.046-0.11,0.064-0.169c0.042-0.131-0.031-0.272-0.163-0.313c-0.125-0.039-0.272,0.031-0.313,0.163
		c-0.066,0.21-0.15,0.404-0.229,0.603l0.05-1.357c0-0.006-0.006-0.01-0.006-0.017c-0.001-0.033-0.02-0.057-0.033-0.087
		s-0.021-0.061-0.044-0.083c-0.005-0.004-0.004-0.012-0.009-0.016c-0.022-0.018-0.051-0.014-0.076-0.023
		c-0.025-0.01-0.044-0.033-0.073-0.034c-0.006,0-0.01,0.006-0.016,0.006c-0.045,0.001-0.082,0.025-0.121,0.05
		c-0.013,0.009-0.027,0.011-0.039,0.021c-0.008,0.007-0.02,0.006-0.026,0.014L16.3,9.623l-0.111-1.842
		c-0.002-0.029-0.025-0.047-0.036-0.073c-0.012-0.029-0.011-0.063-0.034-0.086c-0.003-0.003-0.008-0.002-0.011-0.005
		c-0.028-0.028-0.064-0.032-0.101-0.043c-0.026-0.008-0.047-0.025-0.074-0.024c-0.003,0-0.006-0.003-0.009-0.003
		c-0.031,0.002-0.051,0.026-0.078,0.038s-0.059,0.01-0.081,0.033l-1.148,1.115l-0.188-1.623c-0.001-0.01-0.011-0.015-0.013-0.024
		c-0.006-0.027-0.021-0.045-0.036-0.069c-0.02-0.034-0.038-0.063-0.072-0.084c-0.007-0.004-0.007-0.013-0.015-0.017
		c-0.021-0.011-0.044,0-0.066-0.005c-0.026-0.005-0.045-0.024-0.074-0.02c-0.01,0.001-0.015,0.011-0.023,0.013
		c-0.032,0.007-0.054,0.026-0.081,0.045s-0.053,0.033-0.07,0.061c-0.005,0.008-0.017,0.009-0.021,0.018l-0.582,1.16l-0.718-1.178
		c0,0-0.001,0-0.001,0l-1.288-2.384c0,0-0.001,0-0.001,0c-0.017-0.03-0.052-0.044-0.079-0.065c-0.024-0.018-0.041-0.047-0.069-0.055
		c-0.001,0-0.001,0-0.001,0c-0.125-0.039-0.241,0.033-0.289,0.145c-0.005,0.01-0.017,0.015-0.02,0.025c0,0-0.001,0-0.001,0.001
		l-0.226,0.781L8.882,4.636c-0.005-0.002-0.011,0.001-0.016,0C8.835,4.624,8.805,4.631,8.771,4.632
		C8.739,4.633,8.709,4.626,8.679,4.64C8.674,4.642,8.668,4.639,8.663,4.641C8.637,4.655,8.629,4.684,8.61,4.704
		c-0.02,0.02-0.047,0.029-0.06,0.056C8.549,4.765,8.553,4.771,8.55,4.776c-0.011,0.029-0.003,0.058-0.003,0.09
		C8.548,4.9,8.541,4.932,8.556,4.963c0.002,0.005-0.002,0.01,0.001,0.015l0.994,1.918L8.748,8.593
		C8.746,8.597,8.749,8.6,8.747,8.604C8.742,8.616,8.744,8.628,8.741,8.642C8.738,8.652,8.727,8.658,8.726,8.669L8.61,9.599
		L7.884,8.557C7.876,8.546,7.861,8.546,7.852,8.537C7.828,8.51,7.803,8.498,7.77,8.484C7.741,8.472,7.718,8.463,7.687,8.462
		c-0.014,0-0.024-0.012-0.038-0.01c-0.021,0.003-0.033,0.022-0.053,0.03c-0.02,0.007-0.042,0-0.061,0.013
		C7.523,8.503,7.523,8.519,7.514,8.528C7.49,8.551,7.479,8.575,7.466,8.604C7.452,8.635,7.441,8.66,7.44,8.694
		c0,0.014-0.012,0.023-0.01,0.037l0.186,1.5c-0.024-0.071-0.056-0.135-0.079-0.207c-0.003-0.009-0.014-0.012-0.018-0.021
		c-0.014-0.032-0.038-0.05-0.063-0.074C7.433,9.908,7.417,9.887,7.388,9.875C7.379,9.872,7.375,9.861,7.365,9.858
		C7.339,9.852,7.318,9.866,7.293,9.867c-0.023,0-0.046-0.014-0.069-0.006c-0.01,0.003-0.013,0.014-0.021,0.018
		C7.171,9.892,7.152,9.916,7.129,9.94c-0.021,0.023-0.043,0.041-0.055,0.07c-0.003,0.009-0.014,0.012-0.017,0.022L6.992,10.27
		L6.577,8.457C6.573,8.439,6.555,8.432,6.548,8.416S6.547,8.381,6.536,8.367S6.507,8.352,6.494,8.341
		C6.47,8.318,6.447,8.304,6.416,8.292C6.385,8.28,6.358,8.276,6.325,8.277c-0.017,0-0.031-0.012-0.048-0.008
		C6.26,8.273,6.252,8.291,6.236,8.298C6.221,8.305,6.202,8.299,6.188,8.31L5.789,8.596l0.304-1.607
		c0.043-0.019,0.083-0.047,0.11-0.091c0.074-0.116,0.04-0.271-0.077-0.345L5.042,5.865l1.125-0.143
		c0.007-0.001,0.01-0.008,0.017-0.01c0.021-0.004,0.044-0.005,0.064-0.015c0.018-0.009,0.021-0.03,0.036-0.042
		c0.026-0.021,0.045-0.04,0.061-0.069S6.366,5.53,6.369,5.497c0.002-0.019,0.018-0.034,0.015-0.053
		C6.382,5.428,6.367,5.419,6.362,5.405C6.358,5.391,6.366,5.376,6.359,5.362l-0.898-1.78l0.452,0.15
		c0.026,0.009,0.053,0.013,0.079,0.013c0.061,0,0.114-0.027,0.159-0.066c0.015-0.013,0.021-0.028,0.032-0.044
		C6.199,3.614,6.221,3.6,6.229,3.574C6.234,3.56,6.225,3.547,6.227,3.532c0.002-0.014,0.016-0.023,0.016-0.038V1.887l0.787,0.371
		C7.063,2.273,7.1,2.281,7.136,2.281c0.069,0,0.131-0.037,0.179-0.09C7.32,2.185,7.331,2.188,7.336,2.181l0.938-1.26l0.973,0.769
		C9.264,1.702,9.284,1.7,9.302,1.708C9.308,1.718,9.303,1.73,9.31,1.74c0.049,0.067,0.125,0.102,0.201,0.102
		c0.052,0,0.104-0.016,0.148-0.049l1.198-0.882l-0.083,0.325c-0.007,0.025,0.009,0.046,0.011,0.071c0,0.025-0.014,0.048-0.005,0.073
		c0.004,0.01,0.014,0.015,0.019,0.024c0.009,0.018,0.021,0.028,0.033,0.044c0.027,0.033,0.057,0.056,0.096,0.072
		c0.012,0.004,0.016,0.017,0.027,0.02c0.021,0.005,0.041,0.008,0.062,0.008c0.027,0,0.055-0.004,0.082-0.014l2.377-0.824
		l-0.09,0.228c-0.005,0.012,0.003,0.023,0.001,0.035c-0.004,0.012-0.017,0.019-0.018,0.032c-0.002,0.023,0.015,0.04,0.019,0.061
		c0.005,0.033,0.01,0.06,0.026,0.088c0.018,0.028,0.039,0.044,0.066,0.064c0.018,0.013,0.024,0.036,0.046,0.044
		c0.02,0.008,0.038,0.008,0.058,0.011c0.004,0,0.006,0.004,0.01,0.005l2.007,0.2l-0.292,0.201c-0.022,0.016-0.026,0.043-0.042,0.064
		c-0.019,0.024-0.047,0.039-0.056,0.069c-0.002,0.005,0.003,0.01,0.002,0.015c-0.008,0.032,0.004,0.061,0.009,0.093
		c0.005,0.033,0.002,0.064,0.02,0.092c0.003,0.004,0,0.01,0.003,0.014c0.031,0.044,0.075,0.071,0.122,0.088
		c0.005,0.002,0.007,0.008,0.012,0.01l2.032,0.613l-0.024,0.007c-0.025,0.007-0.036,0.032-0.058,0.046
		c-0.021,0.013-0.046,0.012-0.063,0.032C17.26,2.83,17.263,2.84,17.258,2.848c-0.02,0.027-0.022,0.057-0.029,0.089
		c-0.007,0.032-0.016,0.059-0.01,0.091c0.002,0.009-0.006,0.018-0.003,0.027c0.011,0.037,0.038,0.062,0.062,0.088
		c0.009,0.009,0.007,0.023,0.017,0.032l1.18,1.002h-0.188c-0.021,0-0.035,0.018-0.056,0.023s-0.041-0.004-0.061,0.005
		c-0.013,0.007-0.015,0.022-0.025,0.03c-0.026,0.02-0.041,0.042-0.058,0.07c-0.018,0.029-0.031,0.052-0.036,0.085
		c-0.002,0.014-0.015,0.022-0.015,0.036c0,0.021,0.018,0.035,0.023,0.056c0.004,0.02-0.005,0.041,0.005,0.06l0.946,1.81
		l-0.286-0.087c-0.016-0.005-0.031,0.006-0.048,0.005c-0.019-0.002-0.029-0.016-0.049-0.015C18.609,6.257,18.6,6.274,18.583,6.28
		c-0.03,0.009-0.052,0.021-0.076,0.041c-0.027,0.021-0.046,0.043-0.063,0.074c-0.008,0.015-0.026,0.021-0.031,0.038
		c-0.005,0.017,0.006,0.032,0.005,0.049c-0.002,0.017-0.017,0.03-0.015,0.047l0.201,2.079l-0.115-0.059L18.484,8.502z"/>
	<path d="M10.938,17.287H9.841c-0.138,0-0.25,0.112-0.25,0.25s0.112,0.25,0.25,0.25h1.097c0.138,0,0.25-0.112,0.25-0.25
		S11.075,17.287,10.938,17.287z"/>
	<path d="M15.046,17.287h-1.097c-0.138,0-0.25,0.112-0.25,0.25s0.112,0.25,0.25,0.25h1.097c0.138,0,0.25-0.112,0.25-0.25
		S15.184,17.287,15.046,17.287z"/>
</g>
</svg>
