<svg stroke-miterlimit="10" style="fill-rule:nonzero;clip-rule:evenodd;stroke-linecap:round;stroke-linejoin:round" viewBox="0 0 136.3 34.2" xml:space="preserve" xmlns="http://www.w3.org/2000/svg" xmlns:vectornator="http://vectornator.io"><g fill="#77787b" fill-rule="evenodd" vectornator:layerName="Слой 1"><path d="M17.099-.00128266C7.69901-.00128266-.00098698 7.59872-.00098698 17.0987c0 9.4 7.59999698 17.1 17.09998698 17.1 9.4 0 17.1-7.6 17.1-17.1 0-9.49998-7.7-17.09998266-17.1-17.09998266Zm0 32.79998266c-8.69999 0-15.69999-7-15.69999-15.7 0-8.69998 7-15.69998 15.69999-15.69998 8.7 0 15.7 7 15.7 15.69998.1 8.6-7 15.7-15.7 15.7Z"/><path d="M17.099 29.7987c.6 0 .9-.4 1-.9.1.2.3.4.5.5.2 0 .5 0 .7-.1.2-.1.4-.3.5-.5.1-.2.1-.5 0-.7.3.4.7.5 1.2.3.6-.3.8-.7.5-1.3-.7-1.7-1.4-3.3-2.1-5-.1-.2-.1-.3-.2-.5-.1-.1-.1-.2-.2-.3 0-.1-.1-.1-.2-.2 1.1.1 1.6.5 1.9.7.1.1.1.1.4 0h.4c.1.1.3.2.4.2l1.2.9c.2.2.4.4.4.7 0 .2-.6.7-.7.9-.4.4.2 1 1 1-.2-.2-.3-.4-.2-.6.1 0 .2 0 .4-.1s.1-.6.2-.7c.3-.3 1.1-.3 1.7-.3.2 0 .5-.1.4-.4.3 0 .4.3.4.5.3-.2.5-.9-.5-1.1.2-.2.5-.2.7 0 .2-.3-.3-.8-1.1-.5 0 0-.4-.5-1.4.7-.1-.1-.3-.2-.4-.3l-1.4-1.4c0-.6-.1-1.7-.8-2.3-.3-.3-.6-.4-1.3-.6 0 0 .3-.5.4-.7.6.6 1.8.8 1.8-.2 1 1 1.9.4 1.9-.2 0 .3.1.6.2.9.1.3.6 1.6 1.7 1.6 0 .4 0 1.9 1.4 2.2.1 0 .1 0 .2.1.6.7 2.9 1.4 3.1 1.2-.2-.1-.5-.3-.5-1.1 0-.5-.1-3.3-.1-7.2 0-1.4-.1-5.89998-4.6-6.49998-.7-.1-1.3 0-1.9.4-.8.6-1.2 1.59998-.7 2.69998v.1c.2.3.1.5-.1.7-.4.4-.8.6-1.3.7-.3 0-.6-.1-.8-.3-.5-.5-.8-1.1-1-1.8-.2-1.29998.1-1.99998.1-2.09998.4-.7 1.1-1.3 2-1.3.4-.8 1.6-.5 1.6-.5.3.1.4.1.5.3 0 0 .5-.8 0-1.1-.5-.3-1.6-.4-1.6-.4 0-.5-.8-.9-2.4-.6-1.8.3-2.2-.4-2.2-.4-.1.9.6 1.3.8 1.5-.7.8-1.7 2.3-1.9 4.39998-.2-2.09998-1.2-3.59998-1.9-4.39998.2-.1.9-.6.8-1.5 0 0-.4.7-2.2.4-1.5-.3-2.4.1-2.4.6 0 0-1.1.1-1.59999.4-.5.3 0 1.1 0 1.1.1-.1.2-.2.49999-.3 0 0 1.2-.3 1.6.5.9.1 1.6.6 2 1.3 0 0 .4.7.1 2.09998-.1.7-.5 1.3-1 1.8-.2.2-.5.4-.8.3-.5-.1-.9-.3-1.3-.7-.2-.2-.3-.4-.1-.7v-.1c.5-1.1.1-2.09998-.7-2.69998-.59999-.4-1.19999-.5-1.89999-.4-4.4.6-4.6 5.09998-4.6 6.49998 0 3.9-.1 6.7-.1 7.2 0 .8-.3 1-.5 1.1.3.2 2.6-.5 3.1-1.2 0 0 .1-.1.2-.1 1.4-.3 1.4-1.8 1.4-2.2 1.1 0 1.6-1.3 1.7-1.6.1-.3.2-.6.2-.9 0 .6.89999 1.1 1.89999.2 0 1 1.2.8 1.8.2.1.2.4.7.4.7-.7.1-1 .3-1.3.6-.8.7-.8 1.8-.8 2.3l-1.4 1.4c-.1.1-.29999.2-.39999.3-1.1-1.2-1.4-.7-1.4-.7-.8-.3-1.2.2-1.1.5.2-.2.5-.1.7 0-1.1.2-.8 1-.5 1.1 0-.2.1-.5.4-.5 0 .3.2.4.4.4.5 0 1.4 0 1.7.3.19999.1.09999.6.19999.7.1.1.3.1.4.1 0 .2 0 .3-.2.6.8.1 1.3-.6 1-1-.2-.2-.7-.7-.7-.9 0-.2.2-.5.4-.7l1.2-.9c.1-.1.2-.2.4-.2.1-.1.3-.1.4 0 .3.1.3.1.4 0 .3-.2.8-.6 1.9-.7-.1 0-.1.1-.2.2s-.1.2-.2.3c-.1.1-.1.3-.2.5-.7 1.7-1.4 3.3-2.1 5-.2.6 0 1 .5 1.3.4.2.9.1 1.2-.3-.1.3-.1.5 0 .7.1.2.3.4.5.5.2.1.5.1.7.1.3-.1.4-.2.5-.5.1.5.4.9 1 .9Z"/><g><path d="M45.899 11.0987c.9 0 2.9-.1 4-.2v1.2c-1-.1-2.6-.2-3.1-.2-.4 0-1.7 0-2.5.1v4.2h.9c1.8 0 5.4.3 5.4 3.4 0 2.5-2.1 3.6-4.8 3.6h-3.2c.1-1.9.1-4.4.1-6.5 0-1.9 0-4.8-.1-5.7 1.1 0 2.9.1 3.3.1Zm-1.6 11.1h1.4c2 0 3.1-.9 3.1-2.7 0-1.9-1.4-2.5-4.6-2.5v5.2h.1ZM52.499 15.5987c.7-.8 1.9-1.2 2.9-1.2 1.8 0 3 .9 3 3v4.2c0 .9.2 1.1.5 1.1.1 0 .3 0 .4-.1l.1.4c-.5.3-1 .3-1.3.3-.6 0-.9-.3-1-.7l-.1-.4c-.9.7-1.9 1.1-2.7 1.1-1.5 0-2.5-.8-2.5-2.2 0-1.5 1.1-2.2 2.7-2.5l1.7-.3c.6-.1.9-.3.9-.7 0-1.8-.8-2.3-2.1-2.3-1 0-1.7.3-2.3 1.4h-.2v-1.1Zm4.6 3.2-1.1.2c-1.2.2-2.6.6-2.6 1.9 0 1 .5 1.5 1.6 1.5.7 0 1.3-.2 2-1v-2.6h.1ZM61.799 14.6987h.8c-.1 1.3-.2 3.4-.2 3.5.7 0 1.7.1 2.3.1.6 0 1.6 0 2.1-.1 0-.1 0-2.2-.1-3.5H68.399c-.1 1.3-.2 3.4-.2 4.3 0 .7 0 3 .2 4.3H66.699c.1-1.3.1-3.6.1-4.1-.7-.1-1.8-.1-2.1-.1-.5 0-1.6 0-2.3.1 0 .6 0 2.8.2 4.1H60.899c.1-1.3.2-3.6.2-4.3 0-.9 0-3-.2-4.3h.9ZM71.499 14.6987h.8c-.1 1.3-.1 3.4-.1 3.7h.3c.6 0 3.4-3.2 3.7-3.7h1.6l-4 3.6c.5.6 3.2 3.6 4.4 4.9h-2.1c-.6-1-2.5-3.2-3.6-4.4h-.3c0 .6 0 3.1.1 4.4H70.599c.1-1.3.2-3.6.2-4.3 0-.9 0-3-.2-4.3.3.1.6.1.9.1ZM85.499 10.9987c.6 0 1.3-.1 1.8-.1 3.1 0 4.3.9 4.3 3.1 0 2.7-2.3 3.6-5.1 3.6-.2 0-.8 0-1.1-.1v2.9c0 .8 0 1.9.1 2.7h-1.8c.1-1.9.1-4.4.1-6.5 0-1.9 0-4.8-.1-5.7.7 0 1.4.1 1.8.1Zm.7 5.7c2.4 0 3.7-.9 3.7-2.7 0-1.7-1.3-2.1-3-2.1h-1.5v4.7c.3.1.6.1.8.1ZM100.399 18.8987c0 2.6-1.7 4.5-4.3 4.5-2.6 0-4.2-1.9-4.2-4.3 0-2.8 1.8-4.6 4.4-4.6 2.5 0 4.1 1.8 4.1 4.4Zm-6.9.1c0 1.9.8 3.7 2.6 3.7 1.7 0 2.7-1.7 2.7-3.9 0-1.8-.7-3.7-2.6-3.7-1.8 0-2.7 1.9-2.7 3.9ZM108.599 16.4987h-.2c-.6-1-1.4-1.3-2.3-1.3-2 0-2.9 1.9-2.9 3.8 0 2.1 1.2 3.8 3.3 3.8.7 0 1.3-.1 2.3-1.2l.2.2-.2.8c-.8.5-1.7.8-2.8.8-2.6 0-4.3-1.8-4.3-4.4 0-2.7 1.9-4.4 4.6-4.4.9 0 1.8.2 2.9.7l-.6 1.2ZM117.199 16.4987h-.2c-.6-1-1.4-1.3-2.3-1.3-2 0-2.9 1.9-2.9 3.8 0 2.1 1.2 3.8 3.3 3.8.7 0 1.3-.1 2.3-1.2l.1.2-.2.8c-.8.5-1.7.8-2.8.8-2.6 0-4.3-1.8-4.3-4.4 0-2.7 1.9-4.4 4.6-4.4.9 0 1.8.2 2.9.7l-.5 1.2ZM119.699 23.0987h-.5c.1-1.3.2-3.6.2-4.3 0-.9 0-3-.2-4.3H120.899c-.1 1.3-.2 3.4-.2 4.3v2.2c.9-1.1 4.2-5.3 5-6.4h1.1c-.1 1.3-.2 3.4-.2 4.3 0 .7 0 3 .2 4.3H125.099c.1-1.3.2-3.6.2-4.3v-2.3c-1.1 1.2-4.2 5.1-5.1 6.6-.2-.1-.4-.1-.5-.1ZM129.199 23.0987h-.5c.1-1.3.1-3.6.1-4.3 0-.9 0-3-.1-4.3H130.399c-.2 1.4-.2 3.5-.2 4.4v2.2c.9-1.1 4.2-5.3 5-6.4h1.1c-.1 1.2-.1 3.3-.1 4.2 0 .7 0 3 .1 4.3H134.599c.1-1.3.1-3.6.1-4.3v-2.3c-1.1 1.2-4.2 5.1-5.1 6.6-.1-.1-.2-.1-.4-.1Z"/></g></g></svg>