<?xml version="1.0" encoding="iso-8859-1"?>
<!-- Generator: Adobe Illustrator 20.0.0, SVG Export Plug-In . SVG Version: 6.00 Build 0)  -->
<svg version="1.1" id="Layer_1_1_" xmlns="http://www.w3.org/2000/svg" xmlns:xlink="http://www.w3.org/1999/xlink" x="0px" y="0px"
	 viewBox="0 0 64 64" style="enable-background:new 0 0 64 64;" xml:space="preserve">
<g id="Guide">
	<g>
	</g>
	<g>
	</g>
	<g>
	</g>
	<g>
	</g>
	<g>
	</g>
	<g>
	</g>
	<g>
	</g>
	<g>
	</g>
	<g>
	</g>
	<g>
	</g>
	<g>
	</g>
	<g>
	</g>
	<g>
	</g>
	<g>
	</g>
	<g>
	</g>
	<g>
	</g>
	<g>
	</g>
	<g>
	</g>
	<g>
	</g>
	<g>
	</g>
	<g>
	</g>
	<g>
	</g>
	<g>
	</g>
	<g>
	</g>
	<g>
	</g>
	<g>
	</g>
	<g>
	</g>
	<g>
	</g>
	<g>
	</g>
	<g>
	</g>
	<g>
	</g>
	<g>
	</g>
	<g>
	</g>
	<g>
	</g>
	<g>
	</g>
	<g>
	</g>
</g>
<path d="M10.707,37.293l-0.172-0.172L7,33.586V21.5C7,19.57,5.43,18,3.5,18S0,19.57,0,21.5v22c0,0.224,0.075,0.44,0.212,0.616
	L9,55.345V64h2v-9c0-0.224-0.075-0.44-0.212-0.616L2,43.155V21.5C2,20.673,2.673,20,3.5,20S5,20.673,5,21.5V34
	c0,0.266,0.105,0.52,0.293,0.707l1.464,1.464C5.17,36.638,4,38.092,4,39.828c0,1.023,0.398,1.984,1.122,2.707l6.171,6.172
	l1.414-1.414l-6.172-6.172C6.195,40.78,6,40.31,6,39.828C6,38.82,6.82,38,7.829,38c0.487,0,0.945,0.19,1.29,0.533l0.174,0.174l0,0
	L18,47.414V64h2V47c0-0.266-0.105-0.52-0.293-0.707L10.707,37.293z"/>
<path d="M60.5,18c-1.93,0-3.5,1.57-3.5,3.5v12.086l-3.533,3.533c-0.001,0.001-0.002,0.001-0.003,0.002l-9.171,9.172
	C44.105,46.48,44,46.734,44,47v17h2V47.414l8.707-8.708l0,0l0.176-0.176C55.228,38.189,55.685,38,56.171,38
	C57.18,38,58,38.82,58,39.828c0,0.481-0.195,0.952-0.536,1.293l-6.171,6.172l1.414,1.414l6.171-6.172
	C59.602,41.812,60,40.852,60,39.828c0-1.736-1.17-3.19-2.757-3.657l1.464-1.464C58.895,34.52,59,34.266,59,34V21.5
	c0-0.827,0.673-1.5,1.5-1.5s1.5,0.673,1.5,1.5v21.655l-8.788,11.229C53.075,54.56,53,54.776,53,55v9h2v-8.655l8.788-11.229
	C63.925,43.94,64,43.724,64,43.5v-22C64,19.57,62.43,18,60.5,18z"/>
<path d="M18.641,30.934l13,5c0.01,0.004,0.021,0.002,0.031,0.006C31.778,35.976,31.888,36,32,36s0.222-0.024,0.328-0.061
	c0.01-0.003,0.021-0.002,0.031-0.006l13-5C45.745,30.785,46,30.414,46,30V14c0-0.094-0.017-0.185-0.042-0.273
	c-0.008-0.029-0.021-0.055-0.032-0.083c-0.022-0.058-0.048-0.113-0.081-0.166c-0.018-0.028-0.036-0.055-0.056-0.082
	c-0.036-0.047-0.077-0.09-0.122-0.131c-0.024-0.022-0.047-0.045-0.073-0.065c-0.01-0.008-0.018-0.018-0.028-0.025
	c-0.056-0.039-0.117-0.067-0.179-0.093c-0.01-0.004-0.018-0.012-0.028-0.016l-13-5c-0.23-0.088-0.487-0.119-0.718-0.031L18.651,13
	c-0.001,0-0.001,0-0.002,0l-0.008,0.035c-0.008,0.003-0.015,0.025-0.023,0.029c-0.064,0.027-0.126,0.064-0.184,0.104
	c-0.011,0.007-0.018,0.021-0.028,0.029c-0.027,0.02-0.049,0.045-0.073,0.067c-0.045,0.041-0.086,0.084-0.122,0.132
	c-0.02,0.027-0.039,0.054-0.056,0.082c-0.033,0.053-0.059,0.108-0.081,0.166c-0.011,0.028-0.023,0.054-0.032,0.083
	C18.017,13.815,18,13.906,18,14v16C18,30.414,18.255,30.785,18.641,30.934z M20,15.456l11,4.231v13.857l-11-4.23V15.456z M33,33.544
	V19.687l11-4.231v13.857L33,33.544z M32,10.071L42.214,14L32,17.928L21.786,14L32,10.071z"/>
<path d="M35.921,41.616c-0.643,0.127-1.295,0.224-1.94,0.287l0.194,1.99c0.71-0.069,1.429-0.176,2.135-0.316L35.921,41.616z"/>
<path d="M43.122,38.626c-0.54,0.362-1.106,0.702-1.681,1.012l0.946,1.762c0.633-0.34,1.255-0.715,1.849-1.113L43.122,38.626z"/>
<path d="M37.824,41.139l0.58,1.914c0.686-0.208,1.37-0.453,2.033-0.729l-0.769-1.846C39.067,40.728,38.446,40.95,37.824,41.139z"/>
<path d="M28.121,41.624c-0.639-0.126-1.28-0.285-1.905-0.473l-0.575,1.916c0.687,0.206,1.392,0.381,2.094,0.52L28.121,41.624z"/>
<path d="M18.068,39.028c0.553,0.453,1.136,0.885,1.734,1.284l1.11-1.664c-0.543-0.362-1.074-0.755-1.577-1.167L18.068,39.028z"/>
<path d="M32.022,44L32,42c-0.642,0-1.295-0.031-1.941-0.092l-0.188,1.99C30.579,43.966,31.295,44,32,44H32.022z"/>
<path d="M21.654,41.419c0.633,0.338,1.29,0.648,1.951,0.922l0.765-1.848c-0.602-0.249-1.199-0.531-1.774-0.838L21.654,41.419z"/>
<path d="M50.453,14.272c0.251,0.601,0.476,1.221,0.667,1.844l1.912-0.588c-0.211-0.685-0.458-1.367-0.735-2.029L50.453,14.272z"/>
<path d="M17.998,5.031c-0.555,0.459-1.092,0.948-1.595,1.454l1.419,1.41c0.457-0.46,0.945-0.904,1.45-1.321L17.998,5.031z"/>
<path d="M17.88,36.165c-0.463-0.462-0.907-0.95-1.321-1.452l-1.543,1.271c0.455,0.552,0.943,1.089,1.451,1.597L17.88,36.165z"/>
<path d="M13.531,29.688c-0.25-0.601-0.474-1.222-0.664-1.845l-1.913,0.582c0.209,0.687,0.455,1.37,0.731,2.032L13.531,29.688z"/>
<path d="M29.777,0.112c-0.713,0.072-1.431,0.18-2.133,0.32l0.393,1.961c0.639-0.128,1.292-0.226,1.94-0.291L29.777,0.112z"/>
<path d="M21.572,2.624c-0.633,0.342-1.254,0.718-1.846,1.116l1.117,1.658c0.538-0.362,1.103-0.703,1.679-1.015L21.572,2.624z"/>
<path d="M25.551,0.962c-0.688,0.211-1.371,0.457-2.03,0.732l0.771,1.846c0.599-0.25,1.219-0.475,1.845-0.666L25.551,0.962z"/>
<path d="M15.387,33.14c-0.362-0.539-0.703-1.105-1.014-1.682l-1.761,0.949c0.341,0.633,0.716,1.254,1.114,1.848L15.387,33.14z"/>
<path d="M12.388,25.942c-0.127-0.641-0.225-1.293-0.289-1.94l-1.99,0.197c0.071,0.712,0.178,1.43,0.318,2.134L12.388,25.942z"/>
<path d="M11.649,13.627l1.85,0.762c0.249-0.604,0.529-1.2,0.835-1.775l-1.766-0.939C12.232,12.306,11.923,12.963,11.649,13.627z"/>
<path d="M16.506,9.353l-1.549-1.266c-0.454,0.556-0.885,1.139-1.282,1.734l1.664,1.109C15.701,10.389,16.094,9.857,16.506,9.353z"/>
<path d="M10,22v0.044L12,22c0-0.64,0.031-1.285,0.091-1.919L10.1,19.892C10.034,20.588,10,21.298,10,22z"/>
<path d="M10.409,17.756l1.963,0.385c0.125-0.64,0.284-1.279,0.471-1.903l-1.915-0.576C10.721,16.348,10.547,17.053,10.409,17.756z"
	/>
<path d="M52.333,30.415l-1.848-0.766c-0.25,0.601-0.532,1.197-0.839,1.772l1.764,0.943C51.748,31.732,52.059,31.076,52.333,30.415z"
	/>
<path d="M48.589,10.826c0.365,0.541,0.707,1.105,1.017,1.678l1.759-0.951c-0.34-0.63-0.717-1.251-1.118-1.846L48.589,10.826z"/>
<path d="M50.299,34.217l-1.663-1.111c-0.361,0.541-0.754,1.071-1.169,1.575l1.546,1.27C49.469,35.396,49.901,34.812,50.299,34.217z"
	/>
<path d="M46.091,7.807c0.461,0.457,0.906,0.944,1.324,1.448l1.54-1.275c-0.458-0.554-0.948-1.09-1.456-1.593L46.091,7.807z"/>
<path d="M54,21.983l-0.621-0.045L52,22c0,0.655-0.032,1.314-0.095,1.96l1.99,0.193C53.965,23.444,54,22.72,54,21.983z"/>
<path d="M53.582,26.289L51.62,25.9c-0.126,0.641-0.287,1.28-0.475,1.902l1.914,0.58C53.267,27.698,53.443,26.993,53.582,26.289z"/>
<path d="M44.159,3.662l-1.106,1.666c0.542,0.36,1.073,0.752,1.58,1.165l1.264-1.551C45.339,4.489,44.755,4.059,44.159,3.662z"/>
<path d="M33.896,2.089l0.189-1.99C33.402,0.033,32.7,0,32,0h-0.066L32,2C32.637,2,33.275,2.03,33.896,2.089z"/>
<path d="M40.35,1.642l-0.759,1.85c0.606,0.249,1.203,0.529,1.774,0.834l0.94-1.766C41.676,2.225,41.019,1.915,40.35,1.642z"/>
<path d="M47.565,37.547l-1.416-1.412c-0.458,0.459-0.947,0.902-1.453,1.318l1.271,1.545C46.523,38.54,47.061,38.053,47.565,37.547z"
	/>
<path d="M53.886,19.754c-0.073-0.716-0.182-1.434-0.322-2.133l-1.961,0.396c0.128,0.635,0.227,1.288,0.294,1.939L53.886,19.754z"/>
<path d="M36.22,0.405l-0.381,1.963c0.633,0.123,1.275,0.28,1.906,0.469l0.57-1.918C37.622,0.714,36.917,0.54,36.22,0.405z"/>
<rect x="31" y="47" width="2" height="2"/>
<rect x="35" y="51" width="2" height="2"/>
<rect x="31" y="51" width="2" height="2"/>
<rect x="27" y="51" width="2" height="2"/>
<rect x="31" y="56" width="2" height="2"/>
<rect x="35" y="60" width="2" height="2"/>
<rect x="31" y="60" width="2" height="2"/>
<rect x="27" y="60" width="2" height="2"/>
</svg>
