<?xml version="1.0" encoding="utf-8"?>
<!-- Generator: Adobe Illustrator 16.0.0, SVG Export Plug-In . SVG Version: 6.00 Build 0)  -->
<!DOCTYPE svg PUBLIC "-//W3C//DTD SVG 1.1//EN" "http://www.w3.org/Graphics/SVG/1.1/DTD/svg11.dtd">
<svg version="1.1" id="Layer_1" xmlns="http://www.w3.org/2000/svg" xmlns:xlink="http://www.w3.org/1999/xlink" x="0px" y="0px"
	 width="24px" height="24px" viewBox="0 0 24 24" enable-background="new 0 0 24 24" xml:space="preserve">
<g>
	<path d="M17.771,7.264c-0.016-0.165-0.339-3.507-1.963-5.578l-0.736-1.497c-0.013-0.025-0.04-0.033-0.06-0.052
		c-0.019-0.02-0.025-0.047-0.051-0.06c-0.006-0.003-0.014,0.001-0.02-0.001c-0.03-0.013-0.059-0.007-0.091-0.008
		c-0.033,0-0.063-0.006-0.095,0.006c-0.006,0.003-0.013-0.002-0.02,0.001c-0.025,0.012-0.033,0.04-0.052,0.059
		c-0.02,0.019-0.048,0.025-0.061,0.051L14.21,0.987l-1.852-0.912c-0.011-0.005-0.023,0.001-0.035-0.002s-0.018-0.017-0.03-0.02
		c-0.024-0.004-0.041,0.012-0.064,0.014c-0.031,0.003-0.057,0.004-0.085,0.019c-0.033,0.016-0.054,0.038-0.076,0.066
		c-0.014,0.015-0.034,0.019-0.044,0.038c-0.006,0.011,0.002,0.023-0.002,0.035s-0.018,0.018-0.02,0.03l-0.169,0.926l-1.214-1.069
		c-0.023-0.021-0.055-0.018-0.082-0.028c-0.028-0.011-0.051-0.034-0.083-0.034c-0.003,0-0.005,0.003-0.008,0.003
		c-0.032,0.001-0.057,0.022-0.087,0.036c-0.029,0.014-0.063,0.018-0.085,0.042c-0.002,0.002-0.006,0.001-0.008,0.004
		c-0.021,0.024-0.019,0.055-0.028,0.083c-0.011,0.028-0.034,0.05-0.034,0.082v1.022L8.323,0.741
		c-0.028-0.009-0.053,0.006-0.08,0.007c-0.028,0-0.056-0.013-0.083-0.002C8.154,0.748,8.153,0.755,8.148,0.757
		c-0.03,0.014-0.047,0.041-0.07,0.066c-0.021,0.023-0.047,0.04-0.058,0.07C8.019,0.899,8.012,0.9,8.01,0.906
		C8.001,0.936,8.016,0.962,8.018,0.991c0.001,0.027-0.012,0.052-0.002,0.078l0.22,0.579C8.229,1.654,8.218,1.652,8.212,1.66
		C6.57,3.729,6.245,7.098,6.229,7.264C6.199,7.468,5.737,10.646,6.25,11.8c0.003,0.006,0.009,0.008,0.012,0.014
		c0.007,0.013,0.018,0.02,0.026,0.031c0.029,0.037,0.063,0.063,0.106,0.079c0.01,0.003,0.013,0.014,0.022,0.017
		c0.021,0.005,0.041,0.008,0.062,0.008c0.034,0,0.068-0.007,0.102-0.021c0.009-0.004,0.01-0.015,0.019-0.019
		c0.036-0.021,0.061-0.051,0.083-0.087c0.01-0.017,0.023-0.028,0.029-0.046c0.002-0.005,0.008-0.008,0.01-0.014l0.021-0.085
		c0.151,0.724,0.389,1.591,0.722,2.019c0.004,0.004,0.01,0.002,0.014,0.007c0.046,0.053,0.108,0.089,0.184,0.089
		c0.054,0,0.108-0.017,0.153-0.053c0.005-0.003,0.004-0.01,0.008-0.014c0.025-0.021,0.032-0.052,0.047-0.082
		c0.015-0.029,0.034-0.054,0.036-0.086c0-0.006,0.006-0.009,0.006-0.015v-0.597c0.21,0.414,0.445,0.795,0.711,1.132l0.103,0.66
		c-0.021,0.015-0.049,0.018-0.065,0.041l-1.2,1.648c-0.018,0.024-0.012,0.053-0.02,0.08c-0.009,0.032-0.025,0.059-0.021,0.091
		c0.003,0.032,0.023,0.056,0.039,0.085c0.014,0.025,0.014,0.055,0.035,0.075l0.239,0.219c0.041,2.143,1.076,2.857,1.462,3.047
		L9.682,22.8c0.006,0.035,0.031,0.057,0.05,0.085c0.012,0.018,0.015,0.039,0.03,0.053c0.034,0.032,0.078,0.045,0.124,0.054
		l0.273,0.79c0.009,0.025,0.03,0.039,0.045,0.059c0.012,0.016,0.018,0.031,0.032,0.043c0.045,0.039,0.099,0.066,0.159,0.066h0.618
		c0.061,0,0.113-0.027,0.158-0.066c0.015-0.012,0.021-0.026,0.032-0.042c0.016-0.02,0.036-0.033,0.045-0.058l0.281-0.778h0.068
		c0.062,0,0.116-0.027,0.161-0.067c0.016-0.013,0.021-0.03,0.032-0.047c0.017-0.023,0.04-0.041,0.048-0.069l0.164-0.594l0.164,0.594
		c0.008,0.029,0.031,0.046,0.048,0.069c0.012,0.017,0.017,0.034,0.032,0.047c0.045,0.04,0.1,0.067,0.161,0.067h0.061l0.281,0.778
		c0.009,0.024,0.029,0.038,0.045,0.058c0.011,0.015,0.018,0.029,0.032,0.042c0.045,0.039,0.098,0.066,0.158,0.066h0.618
		c0.061,0,0.114-0.027,0.159-0.066c0.015-0.013,0.021-0.027,0.032-0.043c0.015-0.02,0.036-0.034,0.045-0.059l0.272-0.787
		c0.05-0.008,0.097-0.023,0.133-0.057c0.016-0.014,0.019-0.035,0.03-0.053c0.019-0.028,0.044-0.05,0.05-0.085l0.488-2.779
		c0.386-0.189,1.421-0.904,1.462-3.047l0.239-0.219c0.021-0.02,0.021-0.05,0.035-0.075c0.016-0.029,0.036-0.053,0.039-0.085
		c0.004-0.032-0.013-0.06-0.021-0.091c-0.008-0.027-0.002-0.056-0.02-0.08l-1.2-1.648c-0.017-0.023-0.044-0.025-0.065-0.041
		l0.104-0.672c0.262-0.333,0.494-0.709,0.701-1.118v0.595c0,0.006,0.006,0.009,0.006,0.015c0.002,0.032,0.021,0.057,0.036,0.086
		c0.015,0.03,0.021,0.061,0.047,0.082c0.004,0.004,0.003,0.011,0.008,0.014c0.045,0.036,0.1,0.053,0.153,0.053
		c0.075,0,0.138-0.037,0.184-0.089c0.004-0.004,0.01-0.002,0.014-0.007c0.333-0.428,0.57-1.294,0.722-2.019l0.021,0.085
		c0.002,0.006,0.008,0.009,0.01,0.014c0.006,0.019,0.02,0.029,0.029,0.046c0.022,0.037,0.047,0.067,0.083,0.087
		c0.009,0.004,0.01,0.015,0.019,0.019c0.033,0.015,0.067,0.021,0.102,0.021c0.021,0,0.041-0.002,0.062-0.008
		c0.01-0.002,0.013-0.013,0.022-0.017c0.043-0.016,0.077-0.042,0.106-0.079c0.009-0.012,0.02-0.018,0.026-0.031
		c0.003-0.005,0.009-0.008,0.012-0.014C18.263,10.646,17.801,7.468,17.771,7.264z M8.388,11.301
		C8.388,11.301,8.389,11.301,8.388,11.301c0.047,0.047,0.109,0.076,0.179,0.076c0.063,0,0.126-0.023,0.175-0.071
		c0.001,0,0-0.001,0.001-0.002c0.018-0.017,0.017-0.045,0.028-0.067c0.019-0.036,0.045-0.069,0.045-0.109
		c0,0,0.001-0.001,0.001-0.001V9.379l0.138,0.182c0.011,0.015,0.031,0.011,0.045,0.022C9.019,9.6,9.026,9.626,9.051,9.638
		C9.084,9.653,9.119,9.66,9.153,9.66c0.052,0,0.1-0.018,0.142-0.047c0.003-0.002,0.007-0.001,0.01-0.003
		c0.008-0.006,0.007-0.018,0.015-0.024c0.022-0.022,0.049-0.042,0.063-0.073l0.303-0.676l0.798,1.708
		c-0.021-0.001-0.037-0.013-0.058-0.013c-0.46,0-0.837,0.411-0.837,0.921c0,0.507,0.377,0.92,0.837,0.92
		c0.462,0,0.832-0.414,0.832-0.92c0-0.286-0.123-0.53-0.306-0.699c0.012-0.012,0.017-0.03,0.025-0.044
		c0.014-0.021,0.028-0.036,0.035-0.059c0.002-0.008,0.01-0.013,0.012-0.021l0.36-2.021l0.505,0.252
		C11.924,8.877,11.962,8.886,12,8.886s0.076-0.008,0.111-0.026l0.505-0.252l0.36,2.021c0.002,0.008,0.01,0.013,0.012,0.021
		c0.007,0.023,0.021,0.038,0.035,0.059c0.01,0.015,0.014,0.033,0.026,0.046c-0.183,0.168-0.305,0.413-0.305,0.698
		c0,0.507,0.372,0.92,0.833,0.92s0.834-0.414,0.834-0.92c0-0.511-0.373-0.921-0.834-0.921c-0.021,0-0.039,0.012-0.061,0.014
		l0.798-1.709l0.303,0.676c0.014,0.031,0.04,0.051,0.063,0.073c0.008,0.007,0.007,0.018,0.015,0.024
		c0.003,0.002,0.007,0.001,0.01,0.003c0.042,0.029,0.09,0.047,0.142,0.047c0.034,0,0.069-0.007,0.103-0.022
		c0.024-0.011,0.032-0.038,0.052-0.055c0.014-0.012,0.034-0.008,0.045-0.022l0.138-0.182v1.748c0,0,0.001,0.001,0.001,0.001
		c0,0.04,0.026,0.073,0.045,0.109c0.012,0.022,0.011,0.05,0.028,0.067c0.001,0,0,0.001,0.001,0.002
		c0.049,0.047,0.112,0.071,0.175,0.071c0.069,0,0.132-0.029,0.178-0.075c0,0,0.001,0,0.001,0l0.205-0.21v1.278
		c-0.814,1.861-2.253,3.029-3.816,3.029c-1.564,0-3.004-1.169-3.818-3.032V11.09L8.388,11.301z M10.551,10.69
		c0.004,0.009,0.013,0.012,0.018,0.02c0.009,0.014,0.02,0.022,0.03,0.034c0.031,0.034,0.067,0.057,0.11,0.07
		c0.01,0.003,0.014,0.014,0.024,0.016c0.015,0.002,0.029,0.004,0.044,0.004c0.034,0,0.068-0.008,0.102-0.022
		c0.051,0.071,0.086,0.156,0.086,0.254c0,0.232-0.172,0.42-0.381,0.42c-0.212,0-0.382-0.188-0.382-0.42
		c0-0.214,0.146-0.381,0.333-0.408L10.551,10.69z M13.737,10.647c0.212,0,0.383,0.186,0.383,0.419c0,0.232-0.171,0.42-0.383,0.42
		c-0.209,0-0.379-0.188-0.379-0.42C13.358,10.833,13.528,10.647,13.737,10.647z M8.264,17.461l0.903,0.828v1.124
		C8.844,19.161,8.39,18.604,8.264,17.461z M12,20.099c0.002,0,0.002-0.001,0.004-0.001s0.002,0.001,0.004,0.001h2.285l-0.423,2.408
		H12.6l-0.351-1.27c-0.005-0.017-0.021-0.023-0.029-0.038c-0.009-0.018-0.021-0.028-0.033-0.043
		c-0.028-0.034-0.056-0.06-0.097-0.076c-0.01-0.004-0.013-0.015-0.023-0.018c-0.022-0.006-0.041,0.008-0.063,0.008
		s-0.04-0.014-0.063-0.008c-0.01,0.003-0.014,0.014-0.023,0.018c-0.042,0.015-0.07,0.042-0.099,0.077
		c-0.011,0.015-0.023,0.024-0.031,0.041c-0.008,0.015-0.024,0.021-0.029,0.039l-0.351,1.27h-1.271l-0.423-2.408H12z M10.838,23.45
		h-0.265l-0.153-0.443h0.578L10.838,23.45z M13.58,23.007l-0.153,0.443h-0.265l-0.16-0.443H13.58z M14.841,19.413v-1.124
		l0.903-0.828C15.617,18.605,15.164,19.162,14.841,19.413z M14.816,16.105c0.013,0.002,0.025,0.003,0.038,0.003
		c0.121,0,0.228-0.088,0.247-0.211l0.078-0.504l0.833,1.144l-1.172,1.074v-0.267c0-0.138-0.112-0.25-0.25-0.25
		s-0.25,0.112-0.25,0.25v2.256h-2.333c-0.002,0-0.002,0.001-0.004,0.001S12.002,19.599,12,19.599H9.667v-2.256
		c0-0.138-0.112-0.25-0.25-0.25s-0.25,0.112-0.25,0.25v0.267l-1.172-1.074l0.833-1.144l0.078,0.504
		c0.02,0.124,0.126,0.211,0.247,0.211c0.013,0,0.025-0.001,0.038-0.003c0.137-0.021,0.23-0.149,0.209-0.286l-0.168-1.08
		c0.804,0.738,1.761,1.157,2.769,1.157c1.011,0,1.971-0.423,2.776-1.166l-0.17,1.088C14.586,15.957,14.68,16.084,14.816,16.105z
		 M16.589,12.317V11.76c0-0.016-0.014-0.025-0.017-0.04c0.007-0.112-0.046-0.221-0.157-0.256c-0.033-0.01-0.064,0.005-0.098,0.009
		v-0.997c0,0-0.001-0.001-0.001-0.001c0-0.04-0.026-0.073-0.045-0.109c-0.012-0.022-0.011-0.05-0.028-0.067
		c-0.001,0,0-0.001-0.001-0.002c-0.027-0.026-0.064-0.027-0.098-0.039c-0.026-0.01-0.047-0.032-0.077-0.032
		c-0.001,0-0.001,0-0.002,0c-0.036,0-0.066,0.025-0.1,0.042c-0.025,0.013-0.057,0.013-0.076,0.033c0,0-0.001,0-0.001,0l-0.205,0.21
		V8.636c0-0.007-0.007-0.01-0.007-0.017c-0.002-0.033-0.021-0.057-0.036-0.086c-0.015-0.029-0.022-0.059-0.047-0.08
		c-0.005-0.004-0.004-0.012-0.009-0.016c-0.023-0.017-0.052-0.012-0.077-0.02c-0.026-0.009-0.045-0.031-0.074-0.031
		c-0.007,0-0.011,0.006-0.017,0.007c-0.033,0.002-0.057,0.021-0.087,0.036c-0.029,0.015-0.059,0.022-0.08,0.047
		c-0.004,0.005-0.012,0.004-0.016,0.009l-0.332,0.438l-0.354-0.791c-0.014-0.029-0.043-0.04-0.064-0.061s-0.03-0.05-0.059-0.063
		c-0.003-0.001-0.007,0.001-0.01,0c-0.028-0.012-0.058-0.003-0.088-0.004c-0.036-0.001-0.07-0.01-0.103,0.003
		c-0.002,0.001-0.005-0.001-0.008,0c-0.026,0.012-0.035,0.039-0.055,0.058c-0.023,0.021-0.055,0.033-0.069,0.064L13.33,9.763
		L13.05,8.19c-0.002-0.013-0.016-0.019-0.02-0.03c-0.004-0.013,0.003-0.025-0.003-0.038c-0.011-0.021-0.035-0.026-0.051-0.043
		c-0.021-0.024-0.038-0.043-0.066-0.057c-0.03-0.016-0.058-0.018-0.091-0.021c-0.021-0.002-0.039-0.017-0.06-0.013
		c-0.013,0.002-0.019,0.016-0.031,0.02c-0.012,0.004-0.024-0.003-0.036,0.002L12,8.356L11.308,8.01
		c-0.012-0.006-0.024,0.001-0.036-0.002c-0.013-0.004-0.019-0.018-0.031-0.02c-0.021-0.004-0.039,0.011-0.06,0.013
		c-0.033,0.002-0.061,0.004-0.091,0.02s-0.048,0.036-0.07,0.061c-0.014,0.016-0.037,0.021-0.047,0.041
		c-0.006,0.012,0.001,0.024-0.003,0.037c-0.004,0.012-0.018,0.018-0.02,0.031l-0.28,1.573L9.906,8.128
		c-0.014-0.029-0.044-0.04-0.065-0.061c-0.021-0.02-0.03-0.049-0.059-0.062c-0.003-0.001-0.006,0.001-0.009,0
		C9.74,7.992,9.707,8.001,9.672,8.002C9.641,8.004,9.611,7.995,9.583,8.007c-0.003,0.001-0.006-0.001-0.009,0
		C9.547,8.02,9.538,8.048,9.519,8.068C9.496,8.09,9.465,8.102,9.451,8.132L9.098,8.922L8.766,8.485
		C8.762,8.479,8.754,8.48,8.75,8.476C8.729,8.451,8.699,8.443,8.67,8.429C8.64,8.414,8.616,8.395,8.583,8.393
		c-0.006,0-0.01-0.007-0.017-0.007c-0.029,0-0.048,0.021-0.074,0.031c-0.025,0.008-0.054,0.003-0.077,0.02
		C8.41,8.44,8.411,8.448,8.406,8.452c-0.024,0.021-0.032,0.051-0.047,0.08c-0.015,0.03-0.034,0.054-0.036,0.086
		c0,0.007-0.007,0.01-0.007,0.017v1.876l-0.205-0.21c0,0-0.001,0-0.001,0c-0.021-0.022-0.055-0.023-0.083-0.036
		c-0.031-0.014-0.06-0.039-0.094-0.039c0,0,0,0-0.001,0c-0.026,0-0.043,0.02-0.066,0.028c-0.038,0.011-0.078,0.013-0.108,0.043
		c-0.001,0,0,0.001-0.001,0.002c-0.018,0.017-0.017,0.045-0.028,0.067c-0.019,0.036-0.045,0.069-0.045,0.109
		c0,0-0.001,0.001-0.001,0.001v0.993c-0.033-0.003-0.063-0.019-0.097-0.009c-0.113,0.036-0.168,0.147-0.158,0.261
		c-0.003,0.014-0.017,0.024-0.017,0.039v0.557c-0.194-0.693-0.327-1.491-0.375-1.873c-0.003-0.02-0.02-0.03-0.026-0.048
		C7,10.368,6.99,10.347,6.971,10.324c-0.022-0.029-0.049-0.046-0.083-0.062c-0.015-0.007-0.021-0.024-0.038-0.028
		c-0.016-0.004-0.029,0.007-0.045,0.007c-0.018-0.001-0.029-0.015-0.048-0.013c-0.02,0.002-0.029,0.021-0.047,0.027
		c-0.03,0.011-0.052,0.022-0.075,0.043c-0.026,0.022-0.043,0.045-0.059,0.077c-0.008,0.015-0.025,0.022-0.03,0.04l-0.022,0.089
		C6.473,9.408,6.63,7.964,6.726,7.328c0-0.002-0.002-0.004-0.002-0.007c0.001-0.003,0.004-0.004,0.004-0.007
		C6.73,7.28,7.044,4.026,8.541,2.058c0.01,0.001,0.017,0.008,0.025,0.008c0.029,0,0.06-0.005,0.089-0.016
		C8.784,2,8.85,1.856,8.8,1.727L8.664,1.37l1.716,0.529c0.025,0.008,0.05,0.011,0.074,0.011c0.061,0,0.115-0.027,0.16-0.066
		c0.015-0.013,0.021-0.028,0.032-0.044c0.016-0.022,0.038-0.038,0.047-0.065c0.004-0.014-0.006-0.025-0.004-0.039
		c0.002-0.013,0.015-0.021,0.015-0.035V0.853l1.131,0.996c0.021,0.018,0.048,0.017,0.071,0.027c0.019,0.008,0.028,0.028,0.049,0.032
		c0.016,0.002,0.03,0.004,0.045,0.004c0.067,0,0.125-0.032,0.171-0.078c0.005-0.004,0.013-0.002,0.017-0.007
		c0.013-0.014,0.008-0.033,0.017-0.049c0.015-0.024,0.036-0.042,0.042-0.071l0.188-1.035l1.775,0.874
		c0.035,0.018,0.073,0.026,0.11,0.026c0.046,0,0.091-0.013,0.13-0.037c0.007-0.004,0.011-0.014,0.018-0.019
		c0.029-0.022,0.058-0.045,0.075-0.08l0.299-0.579l0.525,1.069c0.005,0.011,0.016,0.015,0.022,0.024
		c0.004,0.006,0.001,0.015,0.006,0.021c1.554,1.958,1.874,5.309,1.877,5.342c0,0.003,0.003,0.004,0.004,0.007
		c0,0.003-0.002,0.005-0.002,0.007c0.096,0.636,0.253,2.081,0.202,3.176l-0.022-0.089c-0.005-0.018-0.022-0.025-0.031-0.042
		c-0.015-0.03-0.03-0.052-0.056-0.074c-0.024-0.021-0.047-0.034-0.077-0.044c-0.018-0.007-0.027-0.024-0.047-0.027
		c-0.019-0.002-0.03,0.011-0.048,0.013c-0.016,0-0.029-0.011-0.045-0.007c-0.017,0.004-0.023,0.021-0.038,0.028
		c-0.034,0.016-0.061,0.033-0.084,0.063c-0.019,0.022-0.028,0.043-0.038,0.07c-0.007,0.019-0.023,0.029-0.026,0.049
		C16.916,10.827,16.783,11.624,16.589,12.317z"/>
</g>
</svg>
