<?xml version="1.0" encoding="utf-8"?>
<!-- Generator: Adobe Illustrator 16.0.0, SVG Export Plug-In . SVG Version: 6.00 Build 0)  -->
<!DOCTYPE svg PUBLIC "-//W3C//DTD SVG 1.1//EN" "http://www.w3.org/Graphics/SVG/1.1/DTD/svg11.dtd">
<svg version="1.1" id="Layer_1" xmlns="http://www.w3.org/2000/svg" xmlns:xlink="http://www.w3.org/1999/xlink" x="0px" y="0px"
	 width="24px" height="24px" viewBox="0 0 24 24" enable-background="new 0 0 24 24" xml:space="preserve">
<g>
	<path d="M11.106,12.069c0.542,0,0.979-0.487,0.979-1.083c0-0.6-0.437-1.083-0.979-1.083c-0.541,0-0.983,0.483-0.983,1.083
		C10.123,11.582,10.565,12.069,11.106,12.069z M11.294,10.039c0.247,0,0.448,0.219,0.448,0.493s-0.201,0.495-0.448,0.495
		c-0.249,0-0.45-0.221-0.45-0.495S11.045,10.039,11.294,10.039z"/>
	<path d="M14.814,12.069c0.546,0,0.984-0.487,0.984-1.083c0-0.6-0.438-1.083-0.984-1.083c-0.541,0-0.98,0.483-0.98,1.083
		C13.834,11.582,14.273,12.069,14.814,12.069z M15.003,10.039c0.247,0,0.449,0.219,0.449,0.493s-0.202,0.495-0.449,0.495
		c-0.244,0-0.446-0.221-0.446-0.495S14.759,10.039,15.003,10.039z"/>
	<path d="M20.197,5.486c-0.008-0.033-0.012-0.063-0.031-0.09c-0.006-0.007-0.003-0.017-0.009-0.024
		c-0.018-0.02-0.044-0.019-0.065-0.032c-0.021-0.013-0.032-0.037-0.058-0.044l-1.535-0.405l0.745-1.402
		c0.02-0.037,0.011-0.077,0.011-0.116c0.024-0.042,0.049-0.085,0.044-0.138c-0.012-0.136-0.128-0.237-0.271-0.227l-1.121,0.099
		l-0.688-1.76c-0.001-0.002-0.003-0.002-0.004-0.004c-0.013-0.031-0.045-0.048-0.069-0.072c-0.022-0.021-0.037-0.051-0.065-0.062
		c-0.002-0.001-0.002-0.003-0.004-0.004c-0.03-0.012-0.06,0.001-0.091,0.002c-0.03,0-0.061-0.013-0.09-0.001
		c-0.002,0.001-0.002,0.003-0.004,0.004c-0.03,0.012-0.046,0.043-0.068,0.066C16.8,1.298,16.77,1.313,16.757,1.344
		c-0.001,0.002-0.003,0.002-0.004,0.004l-0.273,0.709l-1.669-1.669c-0.012-0.011-0.028-0.008-0.041-0.017
		c-0.013-0.009-0.016-0.026-0.03-0.033c-0.018-0.009-0.036,0.001-0.055-0.002c-0.032-0.007-0.058-0.01-0.091-0.004
		c-0.034,0.006-0.06,0.018-0.089,0.037c-0.015,0.01-0.034,0.007-0.048,0.02c-0.011,0.011-0.008,0.028-0.017,0.041
		s-0.026,0.016-0.033,0.031L14.07,1.186l-1.963-1.103c-0.02-0.011-0.041-0.002-0.063-0.007c-0.021-0.006-0.036-0.025-0.06-0.025
		c-0.013,0-0.021,0.012-0.033,0.014c-0.032,0.004-0.055,0.018-0.083,0.034c-0.029,0.017-0.054,0.031-0.074,0.058
		c-0.008,0.01-0.021,0.01-0.027,0.021c-0.011,0.02-0.002,0.042-0.008,0.063c-0.006,0.021-0.024,0.036-0.024,0.06v0.884
		C10.573,0.551,9.337,0.144,9.13,0.078C9.093,0.057,9.052,0.043,9.005,0.051c-0.021,0-0.035,0.018-0.055,0.023
		C8.918,0.082,8.893,0.09,8.866,0.109C8.839,0.13,8.823,0.152,8.806,0.182C8.795,0.199,8.774,0.206,8.769,0.226
		C8.765,0.24,8.773,0.252,8.772,0.266C8.77,0.279,8.757,0.289,8.757,0.303L8.77,1.756L6.652,0.591c-0.004-0.002-0.008,0-0.011-0.001
		C6.638,0.588,6.638,0.583,6.634,0.582C6.604,0.569,6.576,0.581,6.546,0.58C6.515,0.578,6.484,0.567,6.454,0.577
		C6.422,0.588,6.402,0.616,6.376,0.64C6.355,0.658,6.327,0.665,6.313,0.69C6.312,0.693,6.314,0.697,6.313,0.701
		C6.311,0.705,6.306,0.705,6.304,0.709c-0.195,0.44-0.158,1.244-0.105,1.774L4.242,1.361c-0.008-0.004-0.017,0-0.024-0.003
		c-0.009-0.004-0.011-0.014-0.02-0.017C4.172,1.333,4.149,1.347,4.124,1.346c-0.033,0-0.062-0.005-0.092,0.006
		C4,1.364,3.98,1.387,3.956,1.411C3.938,1.428,3.914,1.432,3.901,1.454c-0.005,0.008,0,0.017-0.003,0.025
		c-0.004,0.008-0.015,0.011-0.018,0.02C3.454,2.771,4.58,5.577,5.057,6.667L4.164,6.5C4.151,6.498,4.143,6.507,4.13,6.507
		c-0.013-0.001-0.019-0.011-0.033-0.01C4.074,6.499,4.062,6.518,4.041,6.525C4.008,6.537,3.979,6.546,3.954,6.57
		C3.932,6.591,3.923,6.614,3.909,6.642C3.898,6.663,3.877,6.675,3.872,6.7C3.87,6.712,3.88,6.722,3.879,6.734
		c0,0.012-0.011,0.02-0.01,0.032c0.204,2.413,2.287,3.029,3.003,3.171l-0.094,1.21c0,0.005,0.004,0.008,0.004,0.013
		c-0.001,0.033,0.018,0.06,0.03,0.092c0.012,0.03,0.016,0.061,0.037,0.083c0.004,0.003,0.002,0.009,0.006,0.013
		c0.025,0.024,0.06,0.025,0.091,0.036c0.021,0.008,0.036,0.029,0.062,0.031c0.007,0.001,0.014,0.001,0.02,0.001
		c0.068,0,0.129-0.03,0.174-0.075c0.002-0.002,0.006-0.001,0.008-0.003l0.003-0.003l0.404,1.366
		c0.017,0.057,0.052,0.102,0.097,0.133c0.002,0.001,0.002,0.004,0.004,0.005c0.043,0.028,0.091,0.042,0.139,0.042
		c0.023,0,0.047-0.003,0.071-0.01c0.006-0.002,0.008-0.008,0.013-0.01c0.049-0.018,0.094-0.045,0.124-0.091l0.371-0.559
		c0.29,0.493,0.622,0.927,0.983,1.31c-0.805,2.281-0.909,3.854-0.304,4.665c0.247,0.331,0.546,0.447,0.759,0.493v0.317l-0.779,3.174
		C9.091,22.18,9.1,22.188,9.099,22.2c-0.001,0.011-0.012,0.017-0.012,0.028c0,0.024,0.02,0.04,0.026,0.063
		c0.009,0.032,0.015,0.06,0.035,0.085c0.021,0.026,0.046,0.039,0.074,0.055c0.021,0.012,0.031,0.034,0.055,0.04
		c0.02,0.005,0.04,0.007,0.06,0.007h0.72l0.203,1.263c0.006,0.036,0.031,0.06,0.051,0.089c0.011,0.018,0.014,0.038,0.029,0.052
		c0.045,0.042,0.103,0.069,0.167,0.069h1.057c0.061,0,0.114-0.027,0.159-0.066c0.015-0.013,0.021-0.027,0.032-0.043
		c0.015-0.02,0.036-0.034,0.045-0.059l0.45-1.305h0.709h0.709l0.45,1.305c0.009,0.025,0.03,0.039,0.045,0.059
		c0.012,0.016,0.018,0.031,0.032,0.043c0.045,0.039,0.099,0.066,0.159,0.066h1.057c0.064,0,0.122-0.027,0.167-0.069
		c0.016-0.014,0.019-0.035,0.029-0.052c0.02-0.029,0.045-0.053,0.051-0.089l0.203-1.263h1.045c0.02,0,0.039-0.002,0.06-0.007
		c0.023-0.006,0.034-0.028,0.055-0.04c0.028-0.016,0.054-0.028,0.074-0.055c0.021-0.026,0.026-0.053,0.036-0.085
		c0.006-0.022,0.025-0.038,0.025-0.063c0-0.011-0.011-0.018-0.012-0.028c-0.001-0.011,0.008-0.02,0.005-0.031l-0.766-3.126
		l1.465-1.459c0.013-0.013,0.01-0.031,0.019-0.046c0.019-0.027,0.029-0.052,0.035-0.084c0.007-0.033,0.007-0.059,0.001-0.092
		c-0.003-0.017,0.007-0.033,0-0.049l-1.502-3.683c0.578-0.585,1.086-1.305,1.479-2.157l0.067,1.173
		c0.001,0.024,0.021,0.04,0.028,0.062c0.01,0.028,0.017,0.052,0.035,0.075c0.022,0.027,0.049,0.041,0.08,0.057
		c0.019,0.01,0.028,0.031,0.05,0.036c0.02,0.004,0.038,0.006,0.057,0.006c0.005,0,0.01,0,0.015,0
		c0.014-0.001,0.021-0.014,0.033-0.016c0.046-0.01,0.087-0.026,0.12-0.058c0.017-0.017,0.023-0.036,0.035-0.057
		c0.013-0.022,0.034-0.037,0.04-0.063l0.773-3.34l0.637,0.346c0.038,0.021,0.078,0.03,0.119,0.03c0.038,0,0.076-0.008,0.111-0.026
		c0.002-0.001,0.002-0.004,0.004-0.005c0.043-0.022,0.08-0.054,0.104-0.1c0.004-0.007-0.001-0.015,0.002-0.023
		c0.014-0.03,0.01-0.06,0.01-0.093c0.001-0.032,0.006-0.061-0.006-0.091c-0.003-0.008,0.002-0.016-0.002-0.023L18.92,6.806
		l1.217-1.081c0.011-0.009,0.008-0.024,0.017-0.035c0.023-0.027,0.05-0.052,0.06-0.088c0.002-0.009-0.005-0.017-0.004-0.026
		C20.214,5.543,20.204,5.517,20.197,5.486z M7.943,12.047l-0.335-1.132l0.151-0.161c0.122,0.333,0.257,0.652,0.408,0.954
		L7.943,12.047z M9.018,10.279L9.018,10.279l-0.001,0.005c-0.003,0.032,0.019,0.056,0.026,0.085
		c0.009,0.032,0.006,0.066,0.027,0.093c0.001,0,0.002,0,0.002,0.001c0.041,0.05,0.102,0.085,0.171,0.091
		c0.008,0,0.016,0.001,0.022,0.001c0.055,0,0.11-0.018,0.156-0.055l2.268-1.823l0.258,0.636c0.021,0.052,0.059,0.09,0.104,0.118
		c0.002,0.001,0.002,0.005,0.005,0.006c0.039,0.022,0.081,0.032,0.123,0.032c0.031,0,0.063-0.006,0.094-0.018
		c0.005-0.002,0.005-0.007,0.01-0.009c0.046-0.021,0.088-0.052,0.114-0.1l0.628-1.114l1.173,1.036
		c0.016,0.014,0.037,0.011,0.055,0.021c0.014,0.008,0.02,0.025,0.035,0.03c0.025,0.008,0.051,0.012,0.076,0.012
		c0.064,0,0.12-0.031,0.166-0.075c0.006-0.005,0.016-0.003,0.021-0.009c0.009-0.01,0.005-0.025,0.013-0.037
		c0.012-0.018,0.031-0.03,0.038-0.052l0.154-0.478l1.121,0.984c0.005,0.004,0.013,0.003,0.019,0.007
		c0.005,0.004,0.005,0.011,0.01,0.015c0.042,0.027,0.09,0.041,0.137,0.041c0.063,0,0.121-0.031,0.169-0.076
		c0.005-0.005,0.014-0.003,0.019-0.009c0.003-0.003,0.001-0.009,0.004-0.013c0.006-0.006,0.013-0.009,0.018-0.016l0.286-0.438
		l0.932,1.999c-0.97,2.174-2.668,3.533-4.509,3.533c-2.059,0-3.937-1.707-4.82-4.351l0.962-1.019L9.018,10.279z M13.209,21.978
		v-1.114c0-0.138-0.112-0.25-0.25-0.25s-0.25,0.112-0.25,0.25v1.114H9.656l0.663-2.702h2.277h3.329l0.661,2.702H13.209z
		 M13.057,18.776l2.83-4.367v4.367H13.057z M16.387,14.916l0.991,2.43l-0.991,0.987V14.916z M9.515,17.885
		c-0.274-0.367-0.571-1.381,0.298-3.963c0.921,0.817,2.007,1.28,3.147,1.28c0.779,0,1.528-0.23,2.223-0.626l-2.722,4.199h-2.088
		v-3.252c0-0.138-0.112-0.25-0.25-0.25s-0.25,0.112-0.25,0.25v2.639C9.763,18.119,9.632,18.042,9.515,17.885z M11.385,23.451H10.72
		l-0.156-0.973h1.157L11.385,23.451z M15.198,23.451h-0.665l-0.336-0.973h1.157L15.198,23.451z M18.348,10.876l-0.033-0.58
		c-0.001-0.02-0.019-0.031-0.023-0.049c-0.009-0.031-0.019-0.055-0.039-0.08c-0.021-0.029-0.043-0.046-0.073-0.063
		c-0.016-0.008-0.021-0.026-0.038-0.032c-0.016-0.004-0.029,0.006-0.045,0.004c-0.017-0.002-0.028-0.017-0.046-0.015
		c-0.021,0.001-0.032,0.019-0.05,0.024c-0.03,0.008-0.053,0.019-0.078,0.037c-0.027,0.021-0.045,0.042-0.063,0.073
		c-0.009,0.015-0.027,0.021-0.033,0.039c-0.031,0.1-0.074,0.188-0.109,0.285l-0.916-1.967C16.79,8.53,16.766,8.523,16.75,8.506
		c-0.016-0.018-0.019-0.043-0.039-0.057c-0.009-0.006-0.02-0.001-0.029-0.005c-0.029-0.016-0.059-0.015-0.092-0.018
		c-0.033-0.002-0.061-0.006-0.091,0.004c-0.011,0.003-0.021-0.003-0.03,0.001c-0.022,0.011-0.029,0.035-0.047,0.051
		c-0.018,0.015-0.043,0.018-0.057,0.039L15.99,9.095l-1.191-1.045c-0.015-0.013-0.034-0.008-0.05-0.017S14.728,8.005,14.71,8
		c-0.016-0.005-0.03,0.005-0.047,0.004c-0.033-0.004-0.06-0.001-0.093,0.007c-0.031,0.009-0.056,0.021-0.081,0.041
		c-0.014,0.01-0.032,0.008-0.043,0.021c-0.013,0.014-0.008,0.033-0.017,0.048s-0.028,0.022-0.034,0.04l-0.153,0.476l-1.117-0.987
		c-0.008-0.007-0.019-0.003-0.026-0.009c-0.008-0.006-0.008-0.017-0.017-0.021c-0.022-0.012-0.047-0.003-0.07-0.009
		c-0.033-0.007-0.061-0.017-0.093-0.011c-0.032,0.005-0.055,0.023-0.082,0.04c-0.021,0.013-0.048,0.012-0.065,0.032
		c-0.007,0.007-0.003,0.018-0.009,0.026s-0.017,0.008-0.021,0.017l-0.525,0.932l-0.189-0.467c-0.005-0.012-0.019-0.015-0.025-0.026
		c-0.007-0.012-0.002-0.026-0.011-0.037c-0.015-0.018-0.038-0.018-0.057-0.031c-0.026-0.02-0.048-0.035-0.079-0.043
		c-0.031-0.008-0.058-0.005-0.09,0c-0.021,0.002-0.043-0.009-0.063,0c-0.013,0.005-0.016,0.02-0.027,0.027
		c-0.011,0.006-0.024,0.002-0.035,0.01L9.566,9.744L9.663,8.66C9.664,8.654,9.658,8.65,9.658,8.645
		C9.66,8.613,9.643,8.587,9.631,8.557C9.619,8.525,9.615,8.494,9.592,8.47C9.589,8.466,9.59,8.46,9.586,8.456
		c-0.021-0.02-0.05-0.018-0.075-0.028C9.485,8.416,9.467,8.392,9.437,8.389c-0.007,0-0.009,0.005-0.016,0.005
		C9.39,8.393,9.365,8.409,9.335,8.42C9.301,8.432,9.264,8.438,9.239,8.463C9.237,8.465,9.234,8.464,9.232,8.466l-1.901,2.015
		l0.057-0.729c0,0,0,0,0,0s0,0,0,0V9.748c0.002-0.03-0.019-0.052-0.025-0.079c-0.01-0.035-0.01-0.074-0.033-0.101
		C7.309,9.543,7.273,9.539,7.245,9.524s-0.05-0.042-0.084-0.044C7.061,9.47,4.844,9.215,4.438,7.06l0.997,0.186
		C5.451,7.248,5.467,7.25,5.481,7.25c0.036,0,0.072-0.008,0.106-0.024c0.01-0.004,0.011-0.016,0.02-0.021
		c0.033-0.021,0.054-0.049,0.075-0.083c0.012-0.02,0.027-0.034,0.033-0.056c0.002-0.008,0.01-0.012,0.012-0.02
		c0.005-0.029-0.013-0.052-0.017-0.08C5.707,6.941,5.719,6.917,5.707,6.893C5.24,5.907,4.176,3.277,4.31,1.976l3.422,1.962
		C7.771,3.96,7.813,3.971,7.855,3.971c0.086,0,0.171-0.045,0.217-0.125C8.141,3.726,8.1,3.573,7.979,3.504L6.738,2.792
		c-0.055-0.391-0.122-1.13-0.047-1.609l2.454,1.35c0.038,0.021,0.079,0.031,0.12,0.031c0.088,0,0.174-0.047,0.219-0.129
		c0.066-0.121,0.022-0.273-0.099-0.34L9.272,2.032L9.26,0.65c0.697,0.244,2.383,0.887,3.368,1.721
		c0.047,0.04,0.104,0.059,0.161,0.059c0.071,0,0.142-0.03,0.19-0.088c0.09-0.105,0.076-0.263-0.029-0.353
		c-0.217-0.184-0.469-0.354-0.729-0.517c0.002-0.013,0.015-0.021,0.015-0.035v-0.71l1.624,0.912l-0.105,0.227
		c-0.059,0.125-0.004,0.274,0.121,0.332c0.034,0.016,0.07,0.023,0.105,0.023c0.094,0,0.185-0.054,0.227-0.145l0.503-1.083
		l1.688,1.688c0.014,0.014,0.033,0.01,0.049,0.02c0.015,0.01,0.021,0.03,0.038,0.037c0.029,0.011,0.06,0.017,0.09,0.017
		c0.061,0,0.113-0.027,0.158-0.065c0.006-0.005,0.014-0.003,0.019-0.008c0.009-0.009,0.006-0.022,0.014-0.033
		c0.014-0.019,0.034-0.031,0.043-0.054l0.181-0.468l0.522,1.335c0.01,0.024,0.03,0.039,0.047,0.058
		c0.012,0.015,0.019,0.03,0.033,0.042c0.044,0.035,0.096,0.059,0.152,0.059c0.007,0,0.015,0,0.021-0.001l0.885-0.078L17.91,4.935
		c-0.005,0.009,0.001,0.019-0.003,0.028c-0.004,0.01-0.016,0.015-0.019,0.025c-0.007,0.025,0.009,0.046,0.01,0.07
		c0.001,0.033-0.001,0.06,0.012,0.089c0.014,0.031,0.035,0.049,0.06,0.072c0.017,0.016,0.022,0.041,0.044,0.053
		c0.013,0.007,0.026,0.005,0.039,0.01c0.006,0.002,0.008,0.009,0.015,0.011l1.389,0.366l-1.012,0.898
		c-0.018,0.016-0.017,0.04-0.028,0.059c-0.019,0.028-0.034,0.05-0.04,0.083c-0.007,0.033-0.001,0.059,0.006,0.092
		c0.005,0.022-0.006,0.044,0.005,0.065l1.006,2.017l-0.25-0.136c-0.12-0.065-0.273-0.022-0.339,0.101
		c-0.027,0.051-0.025,0.106-0.017,0.16c-0.001,0.004-0.006,0.005-0.007,0.01L18.348,10.876z"/>
</g>
</svg>
